<?xml version="1.0" encoding="UTF-8" standalone="no"?>
<!DOCTYPE svg PUBLIC "-//W3C//DTD SVG 1.0//EN"
 "http://www.w3.org/TR/2001/REC-SVG-20010904/DTD/svg10.dtd" [
 <!ATTLIST svg xmlns:xlink CDATA #FIXED "http://www.w3.org/1999/xlink">
]>
<!-- Generated by Graphviz version 2.20.2 (Tue Mar &#160;2 21:46:26 UTC 2010)
     For user: (81665687568) Leandro Nunes dos Santos -->
<!-- Title: controllers_diagram Pages: 1 -->
<svg width="1304pt" height="741pt"
 viewBox="0.00 0.00 1304.00 741.00" xmlns="http://www.w3.org/2000/svg" xmlns:xlink="http://www.w3.org/1999/xlink">
<g id="graph0" class="graph" transform="scale(1 1) rotate(0) translate(4 737)">
<title>controllers_diagram</title>
<polygon style="fill:white;stroke:white;" points="-4,4 -4,-737 1300,-737 1300,4 -4,4"/>
<!-- _diagram_info -->
<g id="node1" class="node"><title>_diagram_info</title>
<text text-anchor="start" x="1002.5" y="-716.8" style="font-family:Times New Roman;font-size:13.00;">Controllers diagram</text>
<text text-anchor="start" x="1002.5" y="-699.8" style="font-family:Times New Roman;font-size:13.00;">Date: Jul 26 2013 &#45; 13:52</text>
<text text-anchor="start" x="1002.5" y="-682.8" style="font-family:Times New Roman;font-size:13.00;">Migration version: 20130726010059</text>
<text text-anchor="start" x="1002.5" y="-665.8" style="font-family:Times New Roman;font-size:13.00;">Generated by RailRoady 1.1.0</text>
<text text-anchor="start" x="1002.5" y="-648.8" style="font-family:Times New Roman;font-size:13.00;">http://railroady.prestonlee.com</text>
</g>
<!-- ProjectsController -->
<g id="node2" class="node"><title>ProjectsController</title>
<ellipse style="fill:none;stroke:black;" cx="98" cy="-297" rx="96.7846" ry="18"/>
<text text-anchor="middle" x="98" y="-292.9" style="font-family:Times New Roman;font-size:14.00;">ProjectsController</text>
</g>
<!-- ActivitiesController -->
<g id="node3" class="node"><title>ActivitiesController</title>
<ellipse style="fill:none;stroke:black;" cx="896" cy="-301" rx="102.843" ry="18"/>
<text text-anchor="middle" x="896" y="-296.9" style="font-family:Times New Roman;font-size:14.00;">ActivitiesController</text>
</g>
<!-- TaskTypesController -->
<g id="node4" class="node"><title>TaskTypesController</title>
<ellipse style="fill:none;stroke:black;" cx="469" cy="-19" rx="105.818" ry="18"/>
<text text-anchor="middle" x="469" y="-14.9" style="font-family:Times New Roman;font-size:14.00;">TaskTypesController</text>
</g>
<!-- ProcessTypesController -->
<g id="node5" class="node"><title>ProcessTypesController</title>
<ellipse style="fill:none;stroke:black;" cx="439" cy="-584" rx="121.104" ry="18"/>
<text text-anchor="middle" x="439" y="-579.9" style="font-family:Times New Roman;font-size:14.00;">ProcessTypesController</text>
</g>
<!-- VisualizationController -->
<g id="node6" class="node"><title>VisualizationController</title>
<ellipse style="fill:none;stroke:black;" cx="901" cy="-564" rx="120.91" ry="18"/>
<text text-anchor="middle" x="901" y="-559.9" style="font-family:Times New Roman;font-size:14.00;">VisualizationController</text>
</g>
<!-- WorkersController -->
<g id="node7" class="node"><title>WorkersController</title>
<ellipse style="fill:none;stroke:black;" cx="404" cy="-386" rx="98.1724" ry="18"/>
<text text-anchor="middle" x="404" y="-381.9" style="font-family:Times New Roman;font-size:14.00;">WorkersController</text>
</g>
<!-- SsTypesController -->
<g id="node8" class="node"><title>SsTypesController</title>
<ellipse style="fill:none;stroke:black;" cx="128" cy="-39" rx="96.0882" ry="18"/>
<text text-anchor="middle" x="128" y="-34.9" style="font-family:Times New Roman;font-size:14.00;">SsTypesController</text>
</g>
<!-- StatesController -->
<g id="node9" class="node"><title>StatesController</title>
<ellipse style="fill:none;stroke:black;" cx="925" cy="-36" rx="89.139" ry="18"/>
<text text-anchor="middle" x="925" y="-31.9" style="font-family:Times New Roman;font-size:14.00;">StatesController</text>
</g>
<!-- ServicesController -->
<g id="node10" class="node"><title>ServicesController</title>
<ellipse style="fill:none;stroke:black;" cx="383" cy="-201" rx="98.1724" ry="18"/>
<text text-anchor="middle" x="383" y="-196.9" style="font-family:Times New Roman;font-size:14.00;">ServicesController</text>
</g>
<!-- ApplicationController -->
<g id="node11" class="node"><title>ApplicationController</title>
<ellipse style="fill:none;stroke:black;" cx="635" cy="-292" rx="111.876" ry="18"/>
<text text-anchor="middle" x="635" y="-287.9" style="font-family:Times New Roman;font-size:14.00;">ApplicationController</text>
</g>
<!-- ApplicationController&#45;&gt;ProjectsController -->
<g id="edge2" class="edge"><title>ApplicationController&#45;&gt;ProjectsController</title>
<path style="fill:none;stroke:black;" d="M513,-293C417,-294 284,-295 195,-296"/>
<polygon style="fill:none;stroke:black;" points="513,-296.5 523,-293 513,-289.5 513,-296.5"/>
</g>
<!-- ApplicationController&#45;&gt;ActivitiesController -->
<g id="edge4" class="edge"><title>ApplicationController&#45;&gt;ActivitiesController</title>
<path style="fill:none;stroke:black;" d="M755,-296C769,-296 781,-297 795,-298"/>
<polygon style="fill:none;stroke:black;" points="755,-292.5 745,-296 755,-299.5 755,-292.5"/>
</g>
<!-- ApplicationController&#45;&gt;TaskTypesController -->
<g id="edge6" class="edge"><title>ApplicationController&#45;&gt;TaskTypesController</title>
<path style="fill:none;stroke:black;" d="M619,-265C585,-210 508,-84 480,-37"/>
<polygon style="fill:none;stroke:black;" points="616.084,-266.958 624,-274 622.203,-263.559 616.084,-266.958"/>
</g>
<!-- ApplicationController&#45;&gt;ProcessTypesController -->
<g id="edge8" class="edge"><title>ApplicationController&#45;&gt;ProcessTypesController</title>
<path style="fill:none;stroke:black;" d="M617,-318C578,-377 485,-516 451,-566"/>
<polygon style="fill:none;stroke:black;" points="619.8,-320.1 623,-310 614.2,-315.9 619.8,-320.1"/>
</g>
<!-- ApplicationController&#45;&gt;VisualizationController -->
<g id="edge10" class="edge"><title>ApplicationController&#45;&gt;VisualizationController</title>
<path style="fill:none;stroke:black;" d="M659,-317C713,-371 837,-499 884,-546"/>
<polygon style="fill:none;stroke:black;" points="661.546,-314.596 652,-310 656.596,-319.546 661.546,-314.596"/>
</g>
<!-- ApplicationController&#45;&gt;WorkersController -->
<g id="edge12" class="edge"><title>ApplicationController&#45;&gt;WorkersController</title>
<path style="fill:none;stroke:black;" d="M585,-313C542,-330 483,-354 445,-370"/>
<polygon style="fill:none;stroke:black;" points="586.283,-316.26 594,-309 583.44,-309.863 586.283,-316.26"/>
</g>
<!-- ApplicationController&#45;&gt;SsTypesController -->
<g id="edge14" class="edge"><title>ApplicationController&#45;&gt;SsTypesController</title>
<path style="fill:none;stroke:black;" d="M598,-269C568,-250 523,-223 483,-201 372,-141 235,-83 168,-55"/>
<polygon style="fill:none;stroke:black;" points="596.559,-272.203 607,-274 599.958,-266.084 596.559,-272.203"/>
</g>
<!-- ApplicationController&#45;&gt;StatesController -->
<g id="edge16" class="edge"><title>ApplicationController&#45;&gt;StatesController</title>
<path style="fill:none;stroke:black;" d="M663,-267C721,-216 854,-98 905,-54"/>
<polygon style="fill:none;stroke:black;" points="660.221,-264.781 655,-274 664.831,-270.049 660.221,-264.781"/>
</g>
<!-- ApplicationController&#45;&gt;ServicesController -->
<g id="edge18" class="edge"><title>ApplicationController&#45;&gt;ServicesController</title>
<path style="fill:none;stroke:black;" d="M579,-272C534,-256 470,-233 428,-217"/>
<polygon style="fill:none;stroke:black;" points="578.415,-275.536 589,-276 581.015,-269.036 578.415,-275.536"/>
</g>
<!-- PrioritiesController -->
<g id="node12" class="node"><title>PrioritiesController</title>
<ellipse style="fill:none;stroke:black;" cx="700" cy="-55" rx="102.148" ry="18"/>
<text text-anchor="middle" x="700" y="-50.9" style="font-family:Times New Roman;font-size:14.00;">PrioritiesController</text>
</g>
<!-- ApplicationController&#45;&gt;PrioritiesController -->
<g id="edge20" class="edge"><title>ApplicationController&#45;&gt;PrioritiesController</title>
<path style="fill:none;stroke:black;" d="M643,-264C656,-214 684,-114 695,-73"/>
<polygon style="fill:none;stroke:black;" points="639.521,-263.416 640,-274 646.226,-265.427 639.521,-263.416"/>
</g>
<!-- SituationsController -->
<g id="node13" class="node"><title>SituationsController</title>
<ellipse style="fill:none;stroke:black;" cx="122" cy="-555" rx="107.206" ry="18"/>
<text text-anchor="middle" x="122" y="-550.9" style="font-family:Times New Roman;font-size:14.00;">SituationsController</text>
</g>
<!-- ApplicationController&#45;&gt;SituationsController -->
<g id="edge22" class="edge"><title>ApplicationController&#45;&gt;SituationsController</title>
<path style="fill:none;stroke:black;" d="M605,-316C579,-336 540,-365 504,-386 388,-454 241,-512 168,-539"/>
<polygon style="fill:none;stroke:black;" points="607.1,-318.8 613,-310 602.9,-313.2 607.1,-318.8"/>
</g>
<!-- TimeTypesController -->
<g id="node14" class="node"><title>TimeTypesController</title>
<ellipse style="fill:none;stroke:black;" cx="1187" cy="-113" rx="107.902" ry="18"/>
<text text-anchor="middle" x="1187" y="-108.9" style="font-family:Times New Roman;font-size:14.00;">TimeTypesController</text>
</g>
<!-- ApplicationController&#45;&gt;TimeTypesController -->
<g id="edge24" class="edge"><title>ApplicationController&#45;&gt;TimeTypesController</title>
<path style="fill:none;stroke:black;" d="M695,-273C804,-237 1036,-162 1138,-129"/>
<polygon style="fill:none;stroke:black;" points="693.573,-269.774 685,-276 695.584,-276.479 693.573,-269.774"/>
</g>
<!-- InputsController -->
<g id="node15" class="node"><title>InputsController</title>
<ellipse style="fill:none;stroke:black;" cx="1180" cy="-496" rx="89.139" ry="18"/>
<text text-anchor="middle" x="1180" y="-491.9" style="font-family:Times New Roman;font-size:14.00;">InputsController</text>
</g>
<!-- ApplicationController&#45;&gt;InputsController -->
<g id="edge26" class="edge"><title>ApplicationController&#45;&gt;InputsController</title>
<path style="fill:none;stroke:black;" d="M689,-312C798,-353 1039,-443 1137,-480"/>
<polygon style="fill:none;stroke:black;" points="690.594,-308.842 680,-309 688.38,-315.483 690.594,-308.842"/>
</g>
<!-- AppropriationsController -->
<g id="node16" class="node"><title>AppropriationsController</title>
<ellipse style="fill:none;stroke:black;" cx="671" cy="-540" rx="129.248" ry="18"/>
<text text-anchor="middle" x="671" y="-535.9" style="font-family:Times New Roman;font-size:14.00;">AppropriationsController</text>
</g>
<!-- ApplicationController&#45;&gt;AppropriationsController -->
<g id="edge28" class="edge"><title>ApplicationController&#45;&gt;AppropriationsController</title>
<path style="fill:none;stroke:black;" d="M639,-320C646,-372 662,-479 668,-522"/>
<polygon style="fill:none;stroke:black;" points="642.478,-319.602 638,-310 635.512,-320.299 642.478,-319.602"/>
</g>
</g>
</svg>
