<?xml version="1.0" encoding="UTF-8" standalone="no"?>
<!DOCTYPE svg PUBLIC "-//W3C//DTD SVG 1.0//EN"
 "http://www.w3.org/TR/2001/REC-SVG-20010904/DTD/svg10.dtd" [
 <!ATTLIST svg xmlns:xlink CDATA #FIXED "http://www.w3.org/1999/xlink">
]>
<!-- Generated by Graphviz version 2.20.2 (Tue Mar &#160;2 21:46:26 UTC 2010)
     For user: (81665687568) Leandro Nunes dos Santos -->
<!-- Title: controllers_diagram Pages: 1 -->
<svg width="1110pt" height="994pt"
 viewBox="0.00 0.00 1110.00 994.00" xmlns="http://www.w3.org/2000/svg" xmlns:xlink="http://www.w3.org/1999/xlink">
<g id="graph0" class="graph" transform="scale(1 1) rotate(0) translate(4 990)">
<title>controllers_diagram</title>
<polygon style="fill:white;stroke:white;" points="-4,4 -4,-990 1106,-990 1106,4 -4,4"/>
<!-- _diagram_info -->
<g id="node1" class="node"><title>_diagram_info</title>
<text text-anchor="start" x="860.5" y="-148.8" style="font-family:Times New Roman;font-size:13.00;">Controllers diagram</text>
<text text-anchor="start" x="860.5" y="-131.8" style="font-family:Times New Roman;font-size:13.00;">Date: Jul 26 2013 &#45; 13:52</text>
<text text-anchor="start" x="860.5" y="-114.8" style="font-family:Times New Roman;font-size:13.00;">Migration version: 20130726010059</text>
<text text-anchor="start" x="860.5" y="-97.8" style="font-family:Times New Roman;font-size:13.00;">Generated by RailRoady 1.1.0</text>
<text text-anchor="start" x="860.5" y="-80.8" style="font-family:Times New Roman;font-size:13.00;">http://railroady.prestonlee.com</text>
</g>
<!-- ProjectsController -->
<g id="node2" class="node"><title>ProjectsController</title>
<polyline style="fill:none;stroke:black;" points="33,-259 149,-259 "/>
<path style="fill:none;stroke:black;" d="M149,-259C155,-259 161,-265 161,-271"/>
<polyline style="fill:none;stroke:black;" points="161,-271 161,-448 "/>
<path style="fill:none;stroke:black;" d="M161,-448C161,-454 155,-460 149,-460"/>
<polyline style="fill:none;stroke:black;" points="149,-460 33,-460 "/>
<path style="fill:none;stroke:black;" d="M33,-460C27,-460 21,-454 21,-448"/>
<polyline style="fill:none;stroke:black;" points="21,-448 21,-271 "/>
<path style="fill:none;stroke:black;" d="M21,-271C21,-265 27,-259 33,-259"/>
<text text-anchor="middle" x="91" y="-442.9" style="font-family:Times New Roman;font-size:14.00;">ProjectsController</text>
<polyline style="fill:none;stroke:black;" points="21,-435 161,-435 "/>
<text text-anchor="start" x="29" y="-417.9" style="font-family:Times New Roman;font-size:14.00;">create</text>
<text text-anchor="start" x="29" y="-400.9" style="font-family:Times New Roman;font-size:14.00;">destroy</text>
<text text-anchor="start" x="29" y="-383.9" style="font-family:Times New Roman;font-size:14.00;">edit</text>
<text text-anchor="start" x="29" y="-366.9" style="font-family:Times New Roman;font-size:14.00;">index</text>
<text text-anchor="start" x="29" y="-349.9" style="font-family:Times New Roman;font-size:14.00;">new</text>
<text text-anchor="start" x="29" y="-332.9" style="font-family:Times New Roman;font-size:14.00;">show</text>
<text text-anchor="start" x="29" y="-315.9" style="font-family:Times New Roman;font-size:14.00;">update</text>
<polyline style="fill:none;stroke:black;" points="21,-308 161,-308 "/>
<polyline style="fill:none;stroke:black;" points="21,-284 161,-284 "/>
<text text-anchor="start" x="29" y="-266.9" style="font-family:Times New Roman;font-size:14.00;">_layout</text>
</g>
<!-- ActivitiesController -->
<g id="node3" class="node"><title>ActivitiesController</title>
<polyline style="fill:none;stroke:black;" points="459,-519 583,-519 "/>
<path style="fill:none;stroke:black;" d="M583,-519C589,-519 595,-525 595,-531"/>
<polyline style="fill:none;stroke:black;" points="595,-531 595,-708 "/>
<path style="fill:none;stroke:black;" d="M595,-708C595,-714 589,-720 583,-720"/>
<polyline style="fill:none;stroke:black;" points="583,-720 459,-720 "/>
<path style="fill:none;stroke:black;" d="M459,-720C453,-720 447,-714 447,-708"/>
<polyline style="fill:none;stroke:black;" points="447,-708 447,-531 "/>
<path style="fill:none;stroke:black;" d="M447,-531C447,-525 453,-519 459,-519"/>
<text text-anchor="middle" x="521" y="-702.9" style="font-family:Times New Roman;font-size:14.00;">ActivitiesController</text>
<polyline style="fill:none;stroke:black;" points="447,-695 595,-695 "/>
<text text-anchor="start" x="455" y="-677.9" style="font-family:Times New Roman;font-size:14.00;">create</text>
<text text-anchor="start" x="455" y="-660.9" style="font-family:Times New Roman;font-size:14.00;">destroy</text>
<text text-anchor="start" x="455" y="-643.9" style="font-family:Times New Roman;font-size:14.00;">edit</text>
<text text-anchor="start" x="455" y="-626.9" style="font-family:Times New Roman;font-size:14.00;">index</text>
<text text-anchor="start" x="455" y="-609.9" style="font-family:Times New Roman;font-size:14.00;">new</text>
<text text-anchor="start" x="455" y="-592.9" style="font-family:Times New Roman;font-size:14.00;">show</text>
<text text-anchor="start" x="455" y="-575.9" style="font-family:Times New Roman;font-size:14.00;">update</text>
<polyline style="fill:none;stroke:black;" points="447,-568 595,-568 "/>
<polyline style="fill:none;stroke:black;" points="447,-544 595,-544 "/>
<text text-anchor="start" x="455" y="-526.9" style="font-family:Times New Roman;font-size:14.00;">_layout</text>
</g>
<!-- TaskTypesController -->
<g id="node4" class="node"><title>TaskTypesController</title>
<polyline style="fill:none;stroke:black;" points="244,-51 373,-51 "/>
<path style="fill:none;stroke:black;" d="M373,-51C379,-51 385,-57 385,-63"/>
<polyline style="fill:none;stroke:black;" points="385,-63 385,-240 "/>
<path style="fill:none;stroke:black;" d="M385,-240C385,-246 379,-252 373,-252"/>
<polyline style="fill:none;stroke:black;" points="373,-252 244,-252 "/>
<path style="fill:none;stroke:black;" d="M244,-252C238,-252 232,-246 232,-240"/>
<polyline style="fill:none;stroke:black;" points="232,-240 232,-63 "/>
<path style="fill:none;stroke:black;" d="M232,-63C232,-57 238,-51 244,-51"/>
<text text-anchor="middle" x="308" y="-234.9" style="font-family:Times New Roman;font-size:14.00;">TaskTypesController</text>
<polyline style="fill:none;stroke:black;" points="232,-227 385,-227 "/>
<text text-anchor="start" x="239.5" y="-209.9" style="font-family:Times New Roman;font-size:14.00;">create</text>
<text text-anchor="start" x="239.5" y="-192.9" style="font-family:Times New Roman;font-size:14.00;">destroy</text>
<text text-anchor="start" x="239.5" y="-175.9" style="font-family:Times New Roman;font-size:14.00;">edit</text>
<text text-anchor="start" x="239.5" y="-158.9" style="font-family:Times New Roman;font-size:14.00;">index</text>
<text text-anchor="start" x="239.5" y="-141.9" style="font-family:Times New Roman;font-size:14.00;">new</text>
<text text-anchor="start" x="239.5" y="-124.9" style="font-family:Times New Roman;font-size:14.00;">show</text>
<text text-anchor="start" x="239.5" y="-107.9" style="font-family:Times New Roman;font-size:14.00;">update</text>
<polyline style="fill:none;stroke:black;" points="232,-100 385,-100 "/>
<polyline style="fill:none;stroke:black;" points="232,-76 385,-76 "/>
<text text-anchor="start" x="239.5" y="-58.9" style="font-family:Times New Roman;font-size:14.00;">_layout</text>
</g>
<!-- ProcessTypesController -->
<g id="node5" class="node"><title>ProcessTypesController</title>
<polyline style="fill:none;stroke:black;" points="34,-773 185,-773 "/>
<path style="fill:none;stroke:black;" d="M185,-773C191,-773 197,-779 197,-785"/>
<polyline style="fill:none;stroke:black;" points="197,-785 197,-962 "/>
<path style="fill:none;stroke:black;" d="M197,-962C197,-968 191,-974 185,-974"/>
<polyline style="fill:none;stroke:black;" points="185,-974 34,-974 "/>
<path style="fill:none;stroke:black;" d="M34,-974C28,-974 22,-968 22,-962"/>
<polyline style="fill:none;stroke:black;" points="22,-962 22,-785 "/>
<path style="fill:none;stroke:black;" d="M22,-785C22,-779 28,-773 34,-773"/>
<text text-anchor="middle" x="109" y="-956.9" style="font-family:Times New Roman;font-size:14.00;">ProcessTypesController</text>
<polyline style="fill:none;stroke:black;" points="22,-949 197,-949 "/>
<text text-anchor="start" x="29.5" y="-931.9" style="font-family:Times New Roman;font-size:14.00;">create</text>
<text text-anchor="start" x="29.5" y="-914.9" style="font-family:Times New Roman;font-size:14.00;">destroy</text>
<text text-anchor="start" x="29.5" y="-897.9" style="font-family:Times New Roman;font-size:14.00;">edit</text>
<text text-anchor="start" x="29.5" y="-880.9" style="font-family:Times New Roman;font-size:14.00;">index</text>
<text text-anchor="start" x="29.5" y="-863.9" style="font-family:Times New Roman;font-size:14.00;">new</text>
<text text-anchor="start" x="29.5" y="-846.9" style="font-family:Times New Roman;font-size:14.00;">show</text>
<text text-anchor="start" x="29.5" y="-829.9" style="font-family:Times New Roman;font-size:14.00;">update</text>
<polyline style="fill:none;stroke:black;" points="22,-822 197,-822 "/>
<polyline style="fill:none;stroke:black;" points="22,-798 197,-798 "/>
<text text-anchor="start" x="29.5" y="-780.9" style="font-family:Times New Roman;font-size:14.00;">_layout</text>
</g>
<!-- VisualizationController -->
<g id="node6" class="node"><title>VisualizationController</title>
<polyline style="fill:none;stroke:black;" points="624,-794 774,-794 "/>
<path style="fill:none;stroke:black;" d="M774,-794C780,-794 786,-800 786,-806"/>
<polyline style="fill:none;stroke:black;" points="786,-806 786,-966 "/>
<path style="fill:none;stroke:black;" d="M786,-966C786,-972 780,-978 774,-978"/>
<polyline style="fill:none;stroke:black;" points="774,-978 624,-978 "/>
<path style="fill:none;stroke:black;" d="M624,-978C618,-978 612,-972 612,-966"/>
<polyline style="fill:none;stroke:black;" points="612,-966 612,-806 "/>
<path style="fill:none;stroke:black;" d="M612,-806C612,-800 618,-794 624,-794"/>
<text text-anchor="middle" x="699" y="-960.9" style="font-family:Times New Roman;font-size:14.00;">VisualizationController</text>
<polyline style="fill:none;stroke:black;" points="612,-953 786,-953 "/>
<text text-anchor="start" x="620" y="-936.4" style="font-family:Times New Roman;font-size:14.00;">bubble</text>
<text text-anchor="start" x="620" y="-919.4" style="font-family:Times New Roman;font-size:14.00;">bubble_data</text>
<text text-anchor="start" x="620" y="-902.4" style="font-family:Times New Roman;font-size:14.00;">map</text>
<text text-anchor="start" x="620" y="-885.4" style="font-family:Times New Roman;font-size:14.00;">map_data</text>
<text text-anchor="start" x="620" y="-868.4" style="font-family:Times New Roman;font-size:14.00;">parallel</text>
<text text-anchor="start" x="620" y="-851.4" style="font-family:Times New Roman;font-size:14.00;">parallel_data</text>
<polyline style="fill:none;stroke:black;" points="612,-843 786,-843 "/>
<polyline style="fill:none;stroke:black;" points="612,-819 786,-819 "/>
<text text-anchor="start" x="620" y="-801.9" style="font-family:Times New Roman;font-size:14.00;">_layout</text>
</g>
<!-- WorkersController -->
<g id="node7" class="node"><title>WorkersController</title>
<polyline style="fill:none;stroke:black;" points="239,-573 357,-573 "/>
<path style="fill:none;stroke:black;" d="M357,-573C363,-573 369,-579 369,-585"/>
<polyline style="fill:none;stroke:black;" points="369,-585 369,-762 "/>
<path style="fill:none;stroke:black;" d="M369,-762C369,-768 363,-774 357,-774"/>
<polyline style="fill:none;stroke:black;" points="357,-774 239,-774 "/>
<path style="fill:none;stroke:black;" d="M239,-774C233,-774 227,-768 227,-762"/>
<polyline style="fill:none;stroke:black;" points="227,-762 227,-585 "/>
<path style="fill:none;stroke:black;" d="M227,-585C227,-579 233,-573 239,-573"/>
<text text-anchor="middle" x="298" y="-756.9" style="font-family:Times New Roman;font-size:14.00;">WorkersController</text>
<polyline style="fill:none;stroke:black;" points="227,-749 369,-749 "/>
<text text-anchor="start" x="235" y="-731.9" style="font-family:Times New Roman;font-size:14.00;">create</text>
<text text-anchor="start" x="235" y="-714.9" style="font-family:Times New Roman;font-size:14.00;">destroy</text>
<text text-anchor="start" x="235" y="-697.9" style="font-family:Times New Roman;font-size:14.00;">edit</text>
<text text-anchor="start" x="235" y="-680.9" style="font-family:Times New Roman;font-size:14.00;">index</text>
<text text-anchor="start" x="235" y="-663.9" style="font-family:Times New Roman;font-size:14.00;">new</text>
<text text-anchor="start" x="235" y="-646.9" style="font-family:Times New Roman;font-size:14.00;">show</text>
<text text-anchor="start" x="235" y="-629.9" style="font-family:Times New Roman;font-size:14.00;">update</text>
<polyline style="fill:none;stroke:black;" points="227,-622 369,-622 "/>
<polyline style="fill:none;stroke:black;" points="227,-598 369,-598 "/>
<text text-anchor="start" x="235" y="-580.9" style="font-family:Times New Roman;font-size:14.00;">_layout</text>
</g>
<!-- SsTypesController -->
<g id="node8" class="node"><title>SsTypesController</title>
<polyline style="fill:none;stroke:black;" points="31,-11 146,-11 "/>
<path style="fill:none;stroke:black;" d="M146,-11C152,-11 158,-17 158,-23"/>
<polyline style="fill:none;stroke:black;" points="158,-23 158,-200 "/>
<path style="fill:none;stroke:black;" d="M158,-200C158,-206 152,-212 146,-212"/>
<polyline style="fill:none;stroke:black;" points="146,-212 31,-212 "/>
<path style="fill:none;stroke:black;" d="M31,-212C25,-212 19,-206 19,-200"/>
<polyline style="fill:none;stroke:black;" points="19,-200 19,-23 "/>
<path style="fill:none;stroke:black;" d="M19,-23C19,-17 25,-11 31,-11"/>
<text text-anchor="middle" x="88" y="-194.9" style="font-family:Times New Roman;font-size:14.00;">SsTypesController</text>
<polyline style="fill:none;stroke:black;" points="19,-187 158,-187 "/>
<text text-anchor="start" x="26.5" y="-169.9" style="font-family:Times New Roman;font-size:14.00;">create</text>
<text text-anchor="start" x="26.5" y="-152.9" style="font-family:Times New Roman;font-size:14.00;">destroy</text>
<text text-anchor="start" x="26.5" y="-135.9" style="font-family:Times New Roman;font-size:14.00;">edit</text>
<text text-anchor="start" x="26.5" y="-118.9" style="font-family:Times New Roman;font-size:14.00;">index</text>
<text text-anchor="start" x="26.5" y="-101.9" style="font-family:Times New Roman;font-size:14.00;">new</text>
<text text-anchor="start" x="26.5" y="-84.9" style="font-family:Times New Roman;font-size:14.00;">show</text>
<text text-anchor="start" x="26.5" y="-67.9" style="font-family:Times New Roman;font-size:14.00;">update</text>
<polyline style="fill:none;stroke:black;" points="19,-60 158,-60 "/>
<polyline style="fill:none;stroke:black;" points="19,-36 158,-36 "/>
<text text-anchor="start" x="26.5" y="-18.9" style="font-family:Times New Roman;font-size:14.00;">_layout</text>
</g>
<!-- StatesController -->
<g id="node9" class="node"><title>StatesController</title>
<polyline style="fill:none;stroke:black;" points="691,-39 796,-39 "/>
<path style="fill:none;stroke:black;" d="M796,-39C802,-39 808,-45 808,-51"/>
<polyline style="fill:none;stroke:black;" points="808,-51 808,-228 "/>
<path style="fill:none;stroke:black;" d="M808,-228C808,-234 802,-240 796,-240"/>
<polyline style="fill:none;stroke:black;" points="796,-240 691,-240 "/>
<path style="fill:none;stroke:black;" d="M691,-240C685,-240 679,-234 679,-228"/>
<polyline style="fill:none;stroke:black;" points="679,-228 679,-51 "/>
<path style="fill:none;stroke:black;" d="M679,-51C679,-45 685,-39 691,-39"/>
<text text-anchor="middle" x="743" y="-222.9" style="font-family:Times New Roman;font-size:14.00;">StatesController</text>
<polyline style="fill:none;stroke:black;" points="679,-215 808,-215 "/>
<text text-anchor="start" x="686.5" y="-197.9" style="font-family:Times New Roman;font-size:14.00;">create</text>
<text text-anchor="start" x="686.5" y="-180.9" style="font-family:Times New Roman;font-size:14.00;">destroy</text>
<text text-anchor="start" x="686.5" y="-163.9" style="font-family:Times New Roman;font-size:14.00;">edit</text>
<text text-anchor="start" x="686.5" y="-146.9" style="font-family:Times New Roman;font-size:14.00;">index</text>
<text text-anchor="start" x="686.5" y="-129.9" style="font-family:Times New Roman;font-size:14.00;">new</text>
<text text-anchor="start" x="686.5" y="-112.9" style="font-family:Times New Roman;font-size:14.00;">show</text>
<text text-anchor="start" x="686.5" y="-95.9" style="font-family:Times New Roman;font-size:14.00;">update</text>
<polyline style="fill:none;stroke:black;" points="679,-88 808,-88 "/>
<polyline style="fill:none;stroke:black;" points="679,-64 808,-64 "/>
<text text-anchor="start" x="686.5" y="-46.9" style="font-family:Times New Roman;font-size:14.00;">_layout</text>
</g>
<!-- ServicesController -->
<g id="node10" class="node"><title>ServicesController</title>
<polyline style="fill:none;stroke:black;" points="458,-249 576,-249 "/>
<path style="fill:none;stroke:black;" d="M576,-249C582,-249 588,-255 588,-261"/>
<polyline style="fill:none;stroke:black;" points="588,-261 588,-438 "/>
<path style="fill:none;stroke:black;" d="M588,-438C588,-444 582,-450 576,-450"/>
<polyline style="fill:none;stroke:black;" points="576,-450 458,-450 "/>
<path style="fill:none;stroke:black;" d="M458,-450C452,-450 446,-444 446,-438"/>
<polyline style="fill:none;stroke:black;" points="446,-438 446,-261 "/>
<path style="fill:none;stroke:black;" d="M446,-261C446,-255 452,-249 458,-249"/>
<text text-anchor="middle" x="517" y="-432.9" style="font-family:Times New Roman;font-size:14.00;">ServicesController</text>
<polyline style="fill:none;stroke:black;" points="446,-425 588,-425 "/>
<text text-anchor="start" x="454" y="-407.9" style="font-family:Times New Roman;font-size:14.00;">create</text>
<text text-anchor="start" x="454" y="-390.9" style="font-family:Times New Roman;font-size:14.00;">destroy</text>
<text text-anchor="start" x="454" y="-373.9" style="font-family:Times New Roman;font-size:14.00;">edit</text>
<text text-anchor="start" x="454" y="-356.9" style="font-family:Times New Roman;font-size:14.00;">index</text>
<text text-anchor="start" x="454" y="-339.9" style="font-family:Times New Roman;font-size:14.00;">new</text>
<text text-anchor="start" x="454" y="-322.9" style="font-family:Times New Roman;font-size:14.00;">show</text>
<text text-anchor="start" x="454" y="-305.9" style="font-family:Times New Roman;font-size:14.00;">update</text>
<polyline style="fill:none;stroke:black;" points="446,-298 588,-298 "/>
<polyline style="fill:none;stroke:black;" points="446,-274 588,-274 "/>
<text text-anchor="start" x="454" y="-256.9" style="font-family:Times New Roman;font-size:14.00;">_layout</text>
</g>
<!-- ApplicationController -->
<g id="node11" class="node"><title>ApplicationController</title>
<polyline style="fill:none;stroke:black;" points="211,-378 415,-378 "/>
<path style="fill:none;stroke:black;" d="M415,-378C421,-378 427,-384 427,-390"/>
<polyline style="fill:none;stroke:black;" points="427,-390 427,-482 "/>
<path style="fill:none;stroke:black;" d="M427,-482C427,-488 421,-494 415,-494"/>
<polyline style="fill:none;stroke:black;" points="415,-494 211,-494 "/>
<path style="fill:none;stroke:black;" d="M211,-494C205,-494 199,-488 199,-482"/>
<polyline style="fill:none;stroke:black;" points="199,-482 199,-390 "/>
<path style="fill:none;stroke:black;" d="M199,-390C199,-384 205,-378 211,-378"/>
<text text-anchor="middle" x="313" y="-476.9" style="font-family:Times New Roman;font-size:14.00;">ApplicationController</text>
<polyline style="fill:none;stroke:black;" points="199,-469 427,-469 "/>
<text text-anchor="start" x="207" y="-451.9" style="font-family:Times New Roman;font-size:14.00;">_one_time_conditions_valid_8?</text>
<polyline style="fill:none;stroke:black;" points="199,-444 427,-444 "/>
<polyline style="fill:none;stroke:black;" points="199,-420 427,-420 "/>
<text text-anchor="start" x="207" y="-403.4" style="font-family:Times New Roman;font-size:14.00;">_layout</text>
<text text-anchor="start" x="207" y="-386.4" style="font-family:Times New Roman;font-size:14.00;">_run_process_action_callbacks</text>
</g>
<!-- ApplicationController&#45;&gt;ProjectsController -->
<g id="edge2" class="edge"><title>ApplicationController&#45;&gt;ProjectsController</title>
<path style="fill:none;stroke:black;" d="M189,-394C180,-391 170,-387 161,-384"/>
<polygon style="fill:none;stroke:black;" points="188.416,-397.479 199,-397 190.427,-390.774 188.416,-397.479"/>
</g>
<!-- ApplicationController&#45;&gt;ActivitiesController -->
<g id="edge4" class="edge"><title>ApplicationController&#45;&gt;ActivitiesController</title>
<path style="fill:none;stroke:black;" d="M387,-501C407,-518 428,-536 447,-554"/>
<polygon style="fill:none;stroke:black;" points="388.831,-497.951 379,-494 384.221,-503.219 388.831,-497.951"/>
</g>
<!-- ApplicationController&#45;&gt;TaskTypesController -->
<g id="edge6" class="edge"><title>ApplicationController&#45;&gt;TaskTypesController</title>
<path style="fill:none;stroke:black;" d="M312,-368C312,-333 311,-290 310,-252"/>
<polygon style="fill:none;stroke:black;" points="308.5,-368 312,-378 315.5,-368 308.5,-368"/>
</g>
<!-- ApplicationController&#45;&gt;ProcessTypesController -->
<g id="edge8" class="edge"><title>ApplicationController&#45;&gt;ProcessTypesController</title>
<path style="fill:none;stroke:black;" d="M264,-503C250,-524 235,-547 224,-570 190,-635 161,-712 141,-773"/>
<polygon style="fill:none;stroke:black;" points="267.365,-504.262 270,-494 261.541,-500.379 267.365,-504.262"/>
</g>
<!-- ApplicationController&#45;&gt;VisualizationController -->
<g id="edge10" class="edge"><title>ApplicationController&#45;&gt;VisualizationController</title>
<path style="fill:none;stroke:black;" d="M343,-503C381,-587 440,-719 444,-723 469,-752 548,-801 612,-838"/>
<polygon style="fill:none;stroke:black;" points="346.26,-501.717 339,-494 339.863,-504.56 346.26,-501.717"/>
</g>
<!-- ApplicationController&#45;&gt;WorkersController -->
<g id="edge12" class="edge"><title>ApplicationController&#45;&gt;WorkersController</title>
<path style="fill:none;stroke:black;" d="M309,-504C307,-526 306,-550 304,-573"/>
<polygon style="fill:none;stroke:black;" points="312.5,-504 309,-494 305.5,-504 312.5,-504"/>
</g>
<!-- ApplicationController&#45;&gt;SsTypesController -->
<g id="edge14" class="edge"><title>ApplicationController&#45;&gt;SsTypesController</title>
<path style="fill:none;stroke:black;" d="M267,-370C236,-324 194,-263 158,-212"/>
<polygon style="fill:none;stroke:black;" points="264.2,-372.1 273,-378 269.8,-367.9 264.2,-372.1"/>
</g>
<!-- ApplicationController&#45;&gt;StatesController -->
<g id="edge16" class="edge"><title>ApplicationController&#45;&gt;StatesController</title>
<path style="fill:none;stroke:black;" d="M344,-369C366,-327 399,-277 443,-246 500,-205 528,-227 594,-204 622,-194 653,-181 679,-170"/>
<polygon style="fill:none;stroke:black;" points="340.797,-367.559 339,-378 346.916,-370.958 340.797,-367.559"/>
</g>
<!-- ApplicationController&#45;&gt;ServicesController -->
<g id="edge18" class="edge"><title>ApplicationController&#45;&gt;ServicesController</title>
<path style="fill:none;stroke:black;" d="M437,-384C440,-383 443,-382 446,-380"/>
<polygon style="fill:none;stroke:black;" points="434.985,-381.036 427,-388 437.585,-387.536 434.985,-381.036"/>
</g>
<!-- PrioritiesController -->
<g id="node12" class="node"><title>PrioritiesController</title>
<polyline style="fill:none;stroke:black;" points="456,-0 579,-0 "/>
<path style="fill:none;stroke:black;" d="M579,-0C585,-0 591,-6 591,-12"/>
<polyline style="fill:none;stroke:black;" points="591,-12 591,-189 "/>
<path style="fill:none;stroke:black;" d="M591,-189C591,-195 585,-201 579,-201"/>
<polyline style="fill:none;stroke:black;" points="579,-201 456,-201 "/>
<path style="fill:none;stroke:black;" d="M456,-201C450,-201 444,-195 444,-189"/>
<polyline style="fill:none;stroke:black;" points="444,-189 444,-12 "/>
<path style="fill:none;stroke:black;" d="M444,-12C444,-6 450,-0 456,-0"/>
<text text-anchor="middle" x="517" y="-183.9" style="font-family:Times New Roman;font-size:14.00;">PrioritiesController</text>
<polyline style="fill:none;stroke:black;" points="444,-176 591,-176 "/>
<text text-anchor="start" x="451.5" y="-158.9" style="font-family:Times New Roman;font-size:14.00;">create</text>
<text text-anchor="start" x="451.5" y="-141.9" style="font-family:Times New Roman;font-size:14.00;">destroy</text>
<text text-anchor="start" x="451.5" y="-124.9" style="font-family:Times New Roman;font-size:14.00;">edit</text>
<text text-anchor="start" x="451.5" y="-107.9" style="font-family:Times New Roman;font-size:14.00;">index</text>
<text text-anchor="start" x="451.5" y="-90.9" style="font-family:Times New Roman;font-size:14.00;">new</text>
<text text-anchor="start" x="451.5" y="-73.9" style="font-family:Times New Roman;font-size:14.00;">show</text>
<text text-anchor="start" x="451.5" y="-56.9" style="font-family:Times New Roman;font-size:14.00;">update</text>
<polyline style="fill:none;stroke:black;" points="444,-49 591,-49 "/>
<polyline style="fill:none;stroke:black;" points="444,-25 591,-25 "/>
<text text-anchor="start" x="451.5" y="-7.9" style="font-family:Times New Roman;font-size:14.00;">_layout</text>
</g>
<!-- ApplicationController&#45;&gt;PrioritiesController -->
<g id="edge20" class="edge"><title>ApplicationController&#45;&gt;PrioritiesController</title>
<path style="fill:none;stroke:black;" d="M354,-369C383,-321 423,-256 456,-201"/>
<polygon style="fill:none;stroke:black;" points="350.797,-367.559 349,-378 356.916,-370.958 350.797,-367.559"/>
</g>
<!-- SituationsController -->
<g id="node13" class="node"><title>SituationsController</title>
<polyline style="fill:none;stroke:black;" points="13,-506 144,-506 "/>
<path style="fill:none;stroke:black;" d="M144,-506C150,-506 156,-512 156,-518"/>
<polyline style="fill:none;stroke:black;" points="156,-518 156,-695 "/>
<path style="fill:none;stroke:black;" d="M156,-695C156,-701 150,-707 144,-707"/>
<polyline style="fill:none;stroke:black;" points="144,-707 13,-707 "/>
<path style="fill:none;stroke:black;" d="M13,-707C7,-707 1,-701 1,-695"/>
<polyline style="fill:none;stroke:black;" points="1,-695 1,-518 "/>
<path style="fill:none;stroke:black;" d="M1,-518C1,-512 7,-506 13,-506"/>
<text text-anchor="middle" x="78" y="-689.9" style="font-family:Times New Roman;font-size:14.00;">SituationsController</text>
<polyline style="fill:none;stroke:black;" points="1,-682 156,-682 "/>
<text text-anchor="start" x="8.5" y="-664.9" style="font-family:Times New Roman;font-size:14.00;">create</text>
<text text-anchor="start" x="8.5" y="-647.9" style="font-family:Times New Roman;font-size:14.00;">destroy</text>
<text text-anchor="start" x="8.5" y="-630.9" style="font-family:Times New Roman;font-size:14.00;">edit</text>
<text text-anchor="start" x="8.5" y="-613.9" style="font-family:Times New Roman;font-size:14.00;">index</text>
<text text-anchor="start" x="8.5" y="-596.9" style="font-family:Times New Roman;font-size:14.00;">new</text>
<text text-anchor="start" x="8.5" y="-579.9" style="font-family:Times New Roman;font-size:14.00;">show</text>
<text text-anchor="start" x="8.5" y="-562.9" style="font-family:Times New Roman;font-size:14.00;">update</text>
<polyline style="fill:none;stroke:black;" points="1,-555 156,-555 "/>
<polyline style="fill:none;stroke:black;" points="1,-531 156,-531 "/>
<text text-anchor="start" x="8.5" y="-513.9" style="font-family:Times New Roman;font-size:14.00;">_layout</text>
</g>
<!-- ApplicationController&#45;&gt;SituationsController -->
<g id="edge22" class="edge"><title>ApplicationController&#45;&gt;SituationsController</title>
<path style="fill:none;stroke:black;" d="M225,-500C202,-516 178,-534 156,-550"/>
<polygon style="fill:none;stroke:black;" points="227.1,-502.8 233,-494 222.9,-497.2 227.1,-502.8"/>
</g>
<!-- TimeTypesController -->
<g id="node14" class="node"><title>TimeTypesController</title>
<polyline style="fill:none;stroke:black;" points="672,-314 804,-314 "/>
<path style="fill:none;stroke:black;" d="M804,-314C810,-314 816,-320 816,-326"/>
<polyline style="fill:none;stroke:black;" points="816,-326 816,-503 "/>
<path style="fill:none;stroke:black;" d="M816,-503C816,-509 810,-515 804,-515"/>
<polyline style="fill:none;stroke:black;" points="804,-515 672,-515 "/>
<path style="fill:none;stroke:black;" d="M672,-515C666,-515 660,-509 660,-503"/>
<polyline style="fill:none;stroke:black;" points="660,-503 660,-326 "/>
<path style="fill:none;stroke:black;" d="M660,-326C660,-320 666,-314 672,-314"/>
<text text-anchor="middle" x="738" y="-497.9" style="font-family:Times New Roman;font-size:14.00;">TimeTypesController</text>
<polyline style="fill:none;stroke:black;" points="660,-490 816,-490 "/>
<text text-anchor="start" x="668" y="-472.9" style="font-family:Times New Roman;font-size:14.00;">create</text>
<text text-anchor="start" x="668" y="-455.9" style="font-family:Times New Roman;font-size:14.00;">destroy</text>
<text text-anchor="start" x="668" y="-438.9" style="font-family:Times New Roman;font-size:14.00;">edit</text>
<text text-anchor="start" x="668" y="-421.9" style="font-family:Times New Roman;font-size:14.00;">index</text>
<text text-anchor="start" x="668" y="-404.9" style="font-family:Times New Roman;font-size:14.00;">new</text>
<text text-anchor="start" x="668" y="-387.9" style="font-family:Times New Roman;font-size:14.00;">show</text>
<text text-anchor="start" x="668" y="-370.9" style="font-family:Times New Roman;font-size:14.00;">update</text>
<polyline style="fill:none;stroke:black;" points="660,-363 816,-363 "/>
<polyline style="fill:none;stroke:black;" points="660,-339 816,-339 "/>
<text text-anchor="start" x="668" y="-321.9" style="font-family:Times New Roman;font-size:14.00;">_layout</text>
</g>
<!-- ApplicationController&#45;&gt;TimeTypesController -->
<g id="edge24" class="edge"><title>ApplicationController&#45;&gt;TimeTypesController</title>
<path style="fill:none;stroke:black;" d="M437,-453C439,-453 441,-453 443,-453 509,-458 526,-462 591,-453 614,-450 638,-445 660,-439"/>
<polygon style="fill:none;stroke:black;" points="437.299,-449.512 427,-452 436.602,-456.478 437.299,-449.512"/>
</g>
<!-- InputsController -->
<g id="node15" class="node"><title>InputsController</title>
<polyline style="fill:none;stroke:black;" points="695,-557 800,-557 "/>
<path style="fill:none;stroke:black;" d="M800,-557C806,-557 812,-563 812,-569"/>
<polyline style="fill:none;stroke:black;" points="812,-569 812,-746 "/>
<path style="fill:none;stroke:black;" d="M812,-746C812,-752 806,-758 800,-758"/>
<polyline style="fill:none;stroke:black;" points="800,-758 695,-758 "/>
<path style="fill:none;stroke:black;" d="M695,-758C689,-758 683,-752 683,-746"/>
<polyline style="fill:none;stroke:black;" points="683,-746 683,-569 "/>
<path style="fill:none;stroke:black;" d="M683,-569C683,-563 689,-557 695,-557"/>
<text text-anchor="middle" x="747" y="-740.9" style="font-family:Times New Roman;font-size:14.00;">InputsController</text>
<polyline style="fill:none;stroke:black;" points="683,-733 812,-733 "/>
<text text-anchor="start" x="690.5" y="-715.9" style="font-family:Times New Roman;font-size:14.00;">create</text>
<text text-anchor="start" x="690.5" y="-698.9" style="font-family:Times New Roman;font-size:14.00;">destroy</text>
<text text-anchor="start" x="690.5" y="-681.9" style="font-family:Times New Roman;font-size:14.00;">edit</text>
<text text-anchor="start" x="690.5" y="-664.9" style="font-family:Times New Roman;font-size:14.00;">index</text>
<text text-anchor="start" x="690.5" y="-647.9" style="font-family:Times New Roman;font-size:14.00;">new</text>
<text text-anchor="start" x="690.5" y="-630.9" style="font-family:Times New Roman;font-size:14.00;">show</text>
<text text-anchor="start" x="690.5" y="-613.9" style="font-family:Times New Roman;font-size:14.00;">update</text>
<polyline style="fill:none;stroke:black;" points="683,-606 812,-606 "/>
<polyline style="fill:none;stroke:black;" points="683,-582 812,-582 "/>
<text text-anchor="start" x="690.5" y="-564.9" style="font-family:Times New Roman;font-size:14.00;">_layout</text>
</g>
<!-- ApplicationController&#45;&gt;InputsController -->
<g id="edge26" class="edge"><title>ApplicationController&#45;&gt;InputsController</title>
<path style="fill:none;stroke:black;" d="M437,-457C489,-469 549,-488 598,-516 629,-533 659,-559 683,-583"/>
<polygon style="fill:none;stroke:black;" points="437.492,-453.529 427,-455 436.119,-460.393 437.492,-453.529"/>
</g>
<!-- AppropriationsController -->
<g id="node16" class="node"><title>AppropriationsController</title>
<polyline style="fill:none;stroke:black;" points="330,-784 492,-784 "/>
<path style="fill:none;stroke:black;" d="M492,-784C498,-784 504,-790 504,-796"/>
<polyline style="fill:none;stroke:black;" points="504,-796 504,-973 "/>
<path style="fill:none;stroke:black;" d="M504,-973C504,-979 498,-985 492,-985"/>
<polyline style="fill:none;stroke:black;" points="492,-985 330,-985 "/>
<path style="fill:none;stroke:black;" d="M330,-985C324,-985 318,-979 318,-973"/>
<polyline style="fill:none;stroke:black;" points="318,-973 318,-796 "/>
<path style="fill:none;stroke:black;" d="M318,-796C318,-790 324,-784 330,-784"/>
<text text-anchor="middle" x="411" y="-967.9" style="font-family:Times New Roman;font-size:14.00;">AppropriationsController</text>
<polyline style="fill:none;stroke:black;" points="318,-960 504,-960 "/>
<text text-anchor="start" x="326" y="-942.9" style="font-family:Times New Roman;font-size:14.00;">create</text>
<text text-anchor="start" x="326" y="-925.9" style="font-family:Times New Roman;font-size:14.00;">destroy</text>
<text text-anchor="start" x="326" y="-908.9" style="font-family:Times New Roman;font-size:14.00;">edit</text>
<text text-anchor="start" x="326" y="-891.9" style="font-family:Times New Roman;font-size:14.00;">index</text>
<text text-anchor="start" x="326" y="-874.9" style="font-family:Times New Roman;font-size:14.00;">new</text>
<text text-anchor="start" x="326" y="-857.9" style="font-family:Times New Roman;font-size:14.00;">show</text>
<text text-anchor="start" x="326" y="-840.9" style="font-family:Times New Roman;font-size:14.00;">update</text>
<polyline style="fill:none;stroke:black;" points="318,-833 504,-833 "/>
<polyline style="fill:none;stroke:black;" points="318,-809 504,-809 "/>
<text text-anchor="start" x="326" y="-791.9" style="font-family:Times New Roman;font-size:14.00;">_layout</text>
</g>
<!-- ApplicationController&#45;&gt;AppropriationsController -->
<g id="edge28" class="edge"><title>ApplicationController&#45;&gt;AppropriationsController</title>
<path style="fill:none;stroke:black;" d="M347,-503C357,-524 366,-547 372,-570 392,-640 401,-721 406,-784"/>
<polygon style="fill:none;stroke:black;" points="350.26,-501.717 343,-494 343.863,-504.56 350.26,-501.717"/>
</g>
</g>
</svg>
