<?xml version="1.0" encoding="UTF-8" standalone="no"?>
<!DOCTYPE svg PUBLIC "-//W3C//DTD SVG 1.0//EN"
 "http://www.w3.org/TR/2001/REC-SVG-20010904/DTD/svg10.dtd" [
 <!ATTLIST svg xmlns:xlink CDATA #FIXED "http://www.w3.org/1999/xlink">
]>
<!-- Generated by Graphviz version 2.20.2 (Tue Mar &#160;2 21:46:26 UTC 2010)
     For user: (81665687568) Leandro Nunes dos Santos -->
<!-- Title: models_diagram Pages: 1 -->
<svg width="1663pt" height="792pt"
 viewBox="0.00 0.00 1663.00 792.00" xmlns="http://www.w3.org/2000/svg" xmlns:xlink="http://www.w3.org/1999/xlink">
<g id="graph0" class="graph" transform="scale(1 1) rotate(0) translate(4 788)">
<title>models_diagram</title>
<polygon style="fill:white;stroke:white;" points="-4,4 -4,-788 1659,-788 1659,4 -4,4"/>
<!-- _diagram_info -->
<g id="node1" class="node"><title>_diagram_info</title>
<text text-anchor="start" x="140.5" y="-755.8" style="font-family:Times New Roman;font-size:13.00;">Models diagram</text>
<text text-anchor="start" x="140.5" y="-738.8" style="font-family:Times New Roman;font-size:13.00;">Date: Jul 26 2013 &#45; 13:52</text>
<text text-anchor="start" x="140.5" y="-721.8" style="font-family:Times New Roman;font-size:13.00;">Migration version: 20130726010059</text>
<text text-anchor="start" x="140.5" y="-704.8" style="font-family:Times New Roman;font-size:13.00;">Generated by RailRoady 1.1.0</text>
<text text-anchor="start" x="140.5" y="-687.8" style="font-family:Times New Roman;font-size:13.00;">http://railroady.prestonlee.com</text>
</g>
<!-- Worker -->
<g id="node2" class="node"><title>Worker</title>
<polyline style="fill:none;stroke:black;" points="12,-384 153,-384 "/>
<path style="fill:none;stroke:black;" d="M153,-384C159,-384 165,-390 165,-396"/>
<polyline style="fill:none;stroke:black;" points="165,-396 165,-490 "/>
<path style="fill:none;stroke:black;" d="M165,-490C165,-496 159,-502 153,-502"/>
<polyline style="fill:none;stroke:black;" points="153,-502 12,-502 "/>
<path style="fill:none;stroke:black;" d="M12,-502C6,-502 0,-496 0,-490"/>
<polyline style="fill:none;stroke:black;" points="0,-490 0,-396 "/>
<path style="fill:none;stroke:black;" d="M0,-396C0,-390 6,-384 12,-384"/>
<text text-anchor="middle" x="82" y="-484.9" style="font-family:Times New Roman;font-size:14.00;">Worker</text>
<polyline style="fill:none;stroke:black;" points="0,-477 165,-477 "/>
<text text-anchor="start" x="7.5" y="-459.9" style="font-family:Times New Roman;font-size:14.00;">id :integer</text>
<text text-anchor="start" x="7.5" y="-442.9" style="font-family:Times New Roman;font-size:14.00;">registration :string</text>
<text text-anchor="start" x="7.5" y="-425.9" style="font-family:Times New Roman;font-size:14.00;">name :string</text>
<text text-anchor="start" x="7.5" y="-408.9" style="font-family:Times New Roman;font-size:14.00;">created_at :datetime</text>
<text text-anchor="start" x="7.5" y="-391.9" style="font-family:Times New Roman;font-size:14.00;">updated_at :datetime</text>
</g>
<!-- Appropriation -->
<g id="node13" class="node"><title>Appropriation</title>
<polyline style="fill:none;stroke:black;" points="467,-0 608,-0 "/>
<path style="fill:none;stroke:black;" d="M608,-0C614,-0 620,-6 620,-12"/>
<polyline style="fill:none;stroke:black;" points="620,-12 620,-208 "/>
<path style="fill:none;stroke:black;" d="M620,-208C620,-214 614,-220 608,-220"/>
<polyline style="fill:none;stroke:black;" points="608,-220 467,-220 "/>
<path style="fill:none;stroke:black;" d="M467,-220C461,-220 455,-214 455,-208"/>
<polyline style="fill:none;stroke:black;" points="455,-208 455,-12 "/>
<path style="fill:none;stroke:black;" d="M455,-12C455,-6 461,-0 467,-0"/>
<text text-anchor="middle" x="537" y="-202.9" style="font-family:Times New Roman;font-size:14.00;">Appropriation</text>
<polyline style="fill:none;stroke:black;" points="455,-195 620,-195 "/>
<text text-anchor="start" x="462.5" y="-177.9" style="font-family:Times New Roman;font-size:14.00;">id :integer</text>
<text text-anchor="start" x="462.5" y="-160.9" style="font-family:Times New Roman;font-size:14.00;">date :datetime</text>
<text text-anchor="start" x="462.5" y="-143.9" style="font-family:Times New Roman;font-size:14.00;">time :float</text>
<text text-anchor="start" x="462.5" y="-126.9" style="font-family:Times New Roman;font-size:14.00;">project_id :integer</text>
<text text-anchor="start" x="462.5" y="-109.9" style="font-family:Times New Roman;font-size:14.00;">worker_id :integer</text>
<text text-anchor="start" x="462.5" y="-92.9" style="font-family:Times New Roman;font-size:14.00;">task_type_id :integer</text>
<text text-anchor="start" x="462.5" y="-75.9" style="font-family:Times New Roman;font-size:14.00;">activity_id :integer</text>
<text text-anchor="start" x="462.5" y="-58.9" style="font-family:Times New Roman;font-size:14.00;">time_type_id :integer</text>
<text text-anchor="start" x="462.5" y="-41.9" style="font-family:Times New Roman;font-size:14.00;">input_id :integer</text>
<text text-anchor="start" x="462.5" y="-24.9" style="font-family:Times New Roman;font-size:14.00;">created_at :datetime</text>
<text text-anchor="start" x="462.5" y="-7.9" style="font-family:Times New Roman;font-size:14.00;">updated_at :datetime</text>
</g>
<!-- Worker&#45;&gt;Appropriation -->
<g id="edge2" class="edge"><title>Worker&#45;&gt;Appropriation</title>
<path style="fill:none;stroke:#4dbadc;" d="M101,-376C115,-336 138,-288 173,-256 249,-185 364,-146 445,-127"/>
<ellipse style="fill:none;stroke:#4dbadc;" cx="99.4045" cy="-380.255" rx="4.00001" ry="4.00001"/>
<polygon style="fill:#4dbadc;stroke:#4dbadc;" points="445.194,-126.961 455.883,-129.413 450.097,-125.981 455,-125 455,-125 455,-125 450.097,-125.981 454.117,-120.587 445.194,-126.961 445.194,-126.961"/>
</g>
<!-- Activity -->
<g id="node3" class="node"><title>Activity</title>
<polyline style="fill:none;stroke:black;" points="194,-392 335,-392 "/>
<path style="fill:none;stroke:black;" d="M335,-392C341,-392 347,-398 347,-404"/>
<polyline style="fill:none;stroke:black;" points="347,-404 347,-481 "/>
<path style="fill:none;stroke:black;" d="M347,-481C347,-487 341,-493 335,-493"/>
<polyline style="fill:none;stroke:black;" points="335,-493 194,-493 "/>
<path style="fill:none;stroke:black;" d="M194,-493C188,-493 182,-487 182,-481"/>
<polyline style="fill:none;stroke:black;" points="182,-481 182,-404 "/>
<path style="fill:none;stroke:black;" d="M182,-404C182,-398 188,-392 194,-392"/>
<text text-anchor="middle" x="264" y="-475.9" style="font-family:Times New Roman;font-size:14.00;">Activity</text>
<polyline style="fill:none;stroke:black;" points="182,-468 347,-468 "/>
<text text-anchor="start" x="189.5" y="-451.4" style="font-family:Times New Roman;font-size:14.00;">id :integer</text>
<text text-anchor="start" x="189.5" y="-434.4" style="font-family:Times New Roman;font-size:14.00;">name :string</text>
<text text-anchor="start" x="189.5" y="-417.4" style="font-family:Times New Roman;font-size:14.00;">created_at :datetime</text>
<text text-anchor="start" x="189.5" y="-400.4" style="font-family:Times New Roman;font-size:14.00;">updated_at :datetime</text>
</g>
<!-- Activity&#45;&gt;Appropriation -->
<g id="edge4" class="edge"><title>Activity&#45;&gt;Appropriation</title>
<path style="fill:none;stroke:#c19dbe;" d="M285,-384C300,-345 324,-294 355,-256 381,-223 415,-193 447,-169"/>
<ellipse style="fill:none;stroke:#c19dbe;" cx="283.405" cy="-388.255" rx="4.00001" ry="4.00001"/>
<polygon style="fill:#c19dbe;stroke:#c19dbe;" points="447,-169 457.7,-166.6 451,-166 455,-163 455,-163 455,-163 451,-166 452.3,-159.4 447,-169 447,-169"/>
</g>
<!-- TimeType -->
<g id="node4" class="node"><title>TimeType</title>
<polyline style="fill:none;stroke:black;" points="376,-392 517,-392 "/>
<path style="fill:none;stroke:black;" d="M517,-392C523,-392 529,-398 529,-404"/>
<polyline style="fill:none;stroke:black;" points="529,-404 529,-481 "/>
<path style="fill:none;stroke:black;" d="M529,-481C529,-487 523,-493 517,-493"/>
<polyline style="fill:none;stroke:black;" points="517,-493 376,-493 "/>
<path style="fill:none;stroke:black;" d="M376,-493C370,-493 364,-487 364,-481"/>
<polyline style="fill:none;stroke:black;" points="364,-481 364,-404 "/>
<path style="fill:none;stroke:black;" d="M364,-404C364,-398 370,-392 376,-392"/>
<text text-anchor="middle" x="446" y="-475.9" style="font-family:Times New Roman;font-size:14.00;">TimeType</text>
<polyline style="fill:none;stroke:black;" points="364,-468 529,-468 "/>
<text text-anchor="start" x="371.5" y="-451.4" style="font-family:Times New Roman;font-size:14.00;">id :integer</text>
<text text-anchor="start" x="371.5" y="-434.4" style="font-family:Times New Roman;font-size:14.00;">name :string</text>
<text text-anchor="start" x="371.5" y="-417.4" style="font-family:Times New Roman;font-size:14.00;">created_at :datetime</text>
<text text-anchor="start" x="371.5" y="-400.4" style="font-family:Times New Roman;font-size:14.00;">updated_at :datetime</text>
</g>
<!-- TimeType&#45;&gt;Appropriation -->
<g id="edge6" class="edge"><title>TimeType&#45;&gt;Appropriation</title>
<path style="fill:none;stroke:#226f0f;" d="M462,-384C474,-342 490,-282 504,-230"/>
<ellipse style="fill:none;stroke:#226f0f;" cx="460.97" cy="-388.119" rx="4.00001" ry="4.00001"/>
<polygon style="fill:#226f0f;stroke:#226f0f;" points="504.126,-229.578 511.31,-221.293 505.563,-224.789 507,-220 507,-220 507,-220 505.563,-224.789 502.69,-218.707 504.126,-229.578 504.126,-229.578"/>
</g>
<!-- Situation -->
<g id="node5" class="node"><title>Situation</title>
<polyline style="fill:none;stroke:black;" points="411,-674 552,-674 "/>
<path style="fill:none;stroke:black;" d="M552,-674C558,-674 564,-680 564,-686"/>
<polyline style="fill:none;stroke:black;" points="564,-686 564,-763 "/>
<path style="fill:none;stroke:black;" d="M564,-763C564,-769 558,-775 552,-775"/>
<polyline style="fill:none;stroke:black;" points="552,-775 411,-775 "/>
<path style="fill:none;stroke:black;" d="M411,-775C405,-775 399,-769 399,-763"/>
<polyline style="fill:none;stroke:black;" points="399,-763 399,-686 "/>
<path style="fill:none;stroke:black;" d="M399,-686C399,-680 405,-674 411,-674"/>
<text text-anchor="middle" x="481" y="-757.9" style="font-family:Times New Roman;font-size:14.00;">Situation</text>
<polyline style="fill:none;stroke:black;" points="399,-750 564,-750 "/>
<text text-anchor="start" x="406.5" y="-733.4" style="font-family:Times New Roman;font-size:14.00;">id :integer</text>
<text text-anchor="start" x="406.5" y="-716.4" style="font-family:Times New Roman;font-size:14.00;">name :string</text>
<text text-anchor="start" x="406.5" y="-699.4" style="font-family:Times New Roman;font-size:14.00;">created_at :datetime</text>
<text text-anchor="start" x="406.5" y="-682.4" style="font-family:Times New Roman;font-size:14.00;">updated_at :datetime</text>
</g>
<!-- Project -->
<g id="node12" class="node"><title>Project</title>
<polyline style="fill:none;stroke:black;" points="922,-256 1132,-256 "/>
<path style="fill:none;stroke:black;" d="M1132,-256C1138,-256 1144,-262 1144,-268"/>
<polyline style="fill:none;stroke:black;" points="1144,-268 1144,-617 "/>
<path style="fill:none;stroke:black;" d="M1144,-617C1144,-623 1138,-629 1132,-629"/>
<polyline style="fill:none;stroke:black;" points="1132,-629 922,-629 "/>
<path style="fill:none;stroke:black;" d="M922,-629C916,-629 910,-623 910,-617"/>
<polyline style="fill:none;stroke:black;" points="910,-617 910,-268 "/>
<path style="fill:none;stroke:black;" d="M910,-268C910,-262 916,-256 922,-256"/>
<text text-anchor="middle" x="1027" y="-611.9" style="font-family:Times New Roman;font-size:14.00;">Project</text>
<polyline style="fill:none;stroke:black;" points="910,-604 1144,-604 "/>
<text text-anchor="start" x="918" y="-587.4" style="font-family:Times New Roman;font-size:14.00;">id :integer</text>
<text text-anchor="start" x="918" y="-570.4" style="font-family:Times New Roman;font-size:14.00;">fp_predicted :float</text>
<text text-anchor="start" x="918" y="-553.4" style="font-family:Times New Roman;font-size:14.00;">fp_realized :float</text>
<text text-anchor="start" x="918" y="-536.4" style="font-family:Times New Roman;font-size:14.00;">predicted_effort :float</text>
<text text-anchor="start" x="918" y="-519.4" style="font-family:Times New Roman;font-size:14.00;">percent_complete :float</text>
<text text-anchor="start" x="918" y="-502.4" style="font-family:Times New Roman;font-size:14.00;">begin_date_predicted :datetime</text>
<text text-anchor="start" x="918" y="-485.4" style="font-family:Times New Roman;font-size:14.00;">end_date_predicted :datetime</text>
<text text-anchor="start" x="918" y="-468.4" style="font-family:Times New Roman;font-size:14.00;">begin_date_realized :datetime</text>
<text text-anchor="start" x="918" y="-451.4" style="font-family:Times New Roman;font-size:14.00;">end_date_realized :datetime</text>
<text text-anchor="start" x="918" y="-434.4" style="font-family:Times New Roman;font-size:14.00;">code :string</text>
<text text-anchor="start" x="918" y="-417.4" style="font-family:Times New Roman;font-size:14.00;">name :string</text>
<text text-anchor="start" x="918" y="-400.4" style="font-family:Times New Roman;font-size:14.00;">priority_id :integer</text>
<text text-anchor="start" x="918" y="-383.4" style="font-family:Times New Roman;font-size:14.00;">state_id :integer</text>
<text text-anchor="start" x="918" y="-366.4" style="font-family:Times New Roman;font-size:14.00;">situation_id :integer</text>
<text text-anchor="start" x="918" y="-349.4" style="font-family:Times New Roman;font-size:14.00;">process_type_id :integer</text>
<text text-anchor="start" x="918" y="-332.4" style="font-family:Times New Roman;font-size:14.00;">ss_type_id :integer</text>
<text text-anchor="start" x="918" y="-315.4" style="font-family:Times New Roman;font-size:14.00;">service_id :integer</text>
<text text-anchor="start" x="918" y="-298.4" style="font-family:Times New Roman;font-size:14.00;">created_at :datetime</text>
<text text-anchor="start" x="918" y="-281.4" style="font-family:Times New Roman;font-size:14.00;">updated_at :datetime</text>
<text text-anchor="start" x="918" y="-264.4" style="font-family:Times New Roman;font-size:14.00;">localization_id :integer</text>
</g>
<!-- Situation&#45;&gt;Project -->
<g id="edge8" class="edge"><title>Situation&#45;&gt;Project</title>
<path style="fill:none;stroke:#935f86;" d="M560,-671C564,-669 568,-667 572,-666 710,-616 775,-706 901,-630 901,-630 901,-630 902,-630"/>
<ellipse style="fill:none;stroke:#935f86;" cx="556.677" cy="-672.424" rx="4.00002" ry="4.00002"/>
<polygon style="fill:#935f86;stroke:#935f86;" points="902,-630 912.7,-627.6 906,-627 910,-624 910,-624 910,-624 906,-627 907.3,-620.4 902,-630 902,-630"/>
</g>
<!-- Service -->
<g id="node6" class="node"><title>Service</title>
<polyline style="fill:none;stroke:black;" points="593,-674 734,-674 "/>
<path style="fill:none;stroke:black;" d="M734,-674C740,-674 746,-680 746,-686"/>
<polyline style="fill:none;stroke:black;" points="746,-686 746,-763 "/>
<path style="fill:none;stroke:black;" d="M746,-763C746,-769 740,-775 734,-775"/>
<polyline style="fill:none;stroke:black;" points="734,-775 593,-775 "/>
<path style="fill:none;stroke:black;" d="M593,-775C587,-775 581,-769 581,-763"/>
<polyline style="fill:none;stroke:black;" points="581,-763 581,-686 "/>
<path style="fill:none;stroke:black;" d="M581,-686C581,-680 587,-674 593,-674"/>
<text text-anchor="middle" x="663" y="-757.9" style="font-family:Times New Roman;font-size:14.00;">Service</text>
<polyline style="fill:none;stroke:black;" points="581,-750 746,-750 "/>
<text text-anchor="start" x="588.5" y="-733.4" style="font-family:Times New Roman;font-size:14.00;">id :integer</text>
<text text-anchor="start" x="588.5" y="-716.4" style="font-family:Times New Roman;font-size:14.00;">code :string</text>
<text text-anchor="start" x="588.5" y="-699.4" style="font-family:Times New Roman;font-size:14.00;">created_at :datetime</text>
<text text-anchor="start" x="588.5" y="-682.4" style="font-family:Times New Roman;font-size:14.00;">updated_at :datetime</text>
</g>
<!-- Service&#45;&gt;Project -->
<g id="edge10" class="edge"><title>Service&#45;&gt;Project</title>
<path style="fill:none;stroke:#2eed29;" d="M744,-670C747,-669 751,-667 754,-666 815,-639 845,-668 901,-630 901,-630 902,-630 902,-629"/>
<ellipse style="fill:none;stroke:#2eed29;" cx="740.473" cy="-672.015" rx="4.00002" ry="4.00002"/>
<polygon style="fill:#2eed29;stroke:#2eed29;" points="902,-629 912.7,-626.6 906,-626 910,-623 910,-623 910,-623 906,-626 907.3,-619.4 902,-629 902,-629"/>
</g>
<!-- Localization -->
<g id="node7" class="node"><title>Localization</title>
<polyline style="fill:none;stroke:black;" points="775,-666 916,-666 "/>
<path style="fill:none;stroke:black;" d="M916,-666C922,-666 928,-672 928,-678"/>
<polyline style="fill:none;stroke:black;" points="928,-678 928,-772 "/>
<path style="fill:none;stroke:black;" d="M928,-772C928,-778 922,-784 916,-784"/>
<polyline style="fill:none;stroke:black;" points="916,-784 775,-784 "/>
<path style="fill:none;stroke:black;" d="M775,-784C769,-784 763,-778 763,-772"/>
<polyline style="fill:none;stroke:black;" points="763,-772 763,-678 "/>
<path style="fill:none;stroke:black;" d="M763,-678C763,-672 769,-666 775,-666"/>
<text text-anchor="middle" x="845" y="-766.9" style="font-family:Times New Roman;font-size:14.00;">Localization</text>
<polyline style="fill:none;stroke:black;" points="763,-759 928,-759 "/>
<text text-anchor="start" x="770.5" y="-741.9" style="font-family:Times New Roman;font-size:14.00;">id :integer</text>
<text text-anchor="start" x="770.5" y="-724.9" style="font-family:Times New Roman;font-size:14.00;">name :string</text>
<text text-anchor="start" x="770.5" y="-707.9" style="font-family:Times New Roman;font-size:14.00;">abbreviation :string</text>
<text text-anchor="start" x="770.5" y="-690.9" style="font-family:Times New Roman;font-size:14.00;">created_at :datetime</text>
<text text-anchor="start" x="770.5" y="-673.9" style="font-family:Times New Roman;font-size:14.00;">updated_at :datetime</text>
</g>
<!-- Localization&#45;&gt;Project -->
<g id="edge12" class="edge"><title>Localization&#45;&gt;Project</title>
<path style="fill:none;stroke:#e7a12b;" d="M887,-659C892,-651 898,-642 904,-633"/>
<ellipse style="fill:none;stroke:#e7a12b;" cx="884.985" cy="-662.527" rx="4.00002" ry="4.00002"/>
<polygon style="fill:#e7a12b;stroke:#e7a12b;" points="904,-633 913.6,-627.7 907,-629 910,-625 910,-625 910,-625 907,-629 906.4,-622.3 904,-633 904,-633"/>
</g>
<!-- Input -->
<g id="node8" class="node"><title>Input</title>
<polyline style="fill:none;stroke:black;" points="558,-392 699,-392 "/>
<path style="fill:none;stroke:black;" d="M699,-392C705,-392 711,-398 711,-404"/>
<polyline style="fill:none;stroke:black;" points="711,-404 711,-481 "/>
<path style="fill:none;stroke:black;" d="M711,-481C711,-487 705,-493 699,-493"/>
<polyline style="fill:none;stroke:black;" points="699,-493 558,-493 "/>
<path style="fill:none;stroke:black;" d="M558,-493C552,-493 546,-487 546,-481"/>
<polyline style="fill:none;stroke:black;" points="546,-481 546,-404 "/>
<path style="fill:none;stroke:black;" d="M546,-404C546,-398 552,-392 558,-392"/>
<text text-anchor="middle" x="628" y="-475.9" style="font-family:Times New Roman;font-size:14.00;">Input</text>
<polyline style="fill:none;stroke:black;" points="546,-468 711,-468 "/>
<text text-anchor="start" x="553.5" y="-451.4" style="font-family:Times New Roman;font-size:14.00;">id :integer</text>
<text text-anchor="start" x="553.5" y="-434.4" style="font-family:Times New Roman;font-size:14.00;">name :string</text>
<text text-anchor="start" x="553.5" y="-417.4" style="font-family:Times New Roman;font-size:14.00;">created_at :datetime</text>
<text text-anchor="start" x="553.5" y="-400.4" style="font-family:Times New Roman;font-size:14.00;">updated_at :datetime</text>
</g>
<!-- Input&#45;&gt;Appropriation -->
<g id="edge14" class="edge"><title>Input&#45;&gt;Appropriation</title>
<path style="fill:none;stroke:#c807c8;" d="M612,-384C600,-342 584,-282 570,-230"/>
<ellipse style="fill:none;stroke:#c807c8;" cx="613.03" cy="-388.119" rx="4.00001" ry="4.00001"/>
<polygon style="fill:#c807c8;stroke:#c807c8;" points="569.874,-229.578 571.31,-218.707 568.437,-224.789 567,-220 567,-220 567,-220 568.437,-224.789 562.69,-221.293 569.874,-229.578 569.874,-229.578"/>
</g>
<!-- SsType -->
<g id="node9" class="node"><title>SsType</title>
<polyline style="fill:none;stroke:black;" points="957,-674 1098,-674 "/>
<path style="fill:none;stroke:black;" d="M1098,-674C1104,-674 1110,-680 1110,-686"/>
<polyline style="fill:none;stroke:black;" points="1110,-686 1110,-763 "/>
<path style="fill:none;stroke:black;" d="M1110,-763C1110,-769 1104,-775 1098,-775"/>
<polyline style="fill:none;stroke:black;" points="1098,-775 957,-775 "/>
<path style="fill:none;stroke:black;" d="M957,-775C951,-775 945,-769 945,-763"/>
<polyline style="fill:none;stroke:black;" points="945,-763 945,-686 "/>
<path style="fill:none;stroke:black;" d="M945,-686C945,-680 951,-674 957,-674"/>
<text text-anchor="middle" x="1027" y="-757.9" style="font-family:Times New Roman;font-size:14.00;">SsType</text>
<polyline style="fill:none;stroke:black;" points="945,-750 1110,-750 "/>
<text text-anchor="start" x="952.5" y="-733.4" style="font-family:Times New Roman;font-size:14.00;">id :integer</text>
<text text-anchor="start" x="952.5" y="-716.4" style="font-family:Times New Roman;font-size:14.00;">name :string</text>
<text text-anchor="start" x="952.5" y="-699.4" style="font-family:Times New Roman;font-size:14.00;">created_at :datetime</text>
<text text-anchor="start" x="952.5" y="-682.4" style="font-family:Times New Roman;font-size:14.00;">updated_at :datetime</text>
</g>
<!-- SsType&#45;&gt;Project -->
<g id="edge16" class="edge"><title>SsType&#45;&gt;Project</title>
<path style="fill:none;stroke:#a82208;" d="M1027,-666C1027,-658 1027,-649 1027,-639"/>
<ellipse style="fill:none;stroke:#a82208;" cx="1027" cy="-670" rx="4" ry="4"/>
<polygon style="fill:#a82208;stroke:#a82208;" points="1027,-639 1031.5,-629 1027,-634 1027,-629 1027,-629 1027,-629 1027,-634 1022.5,-629 1027,-639 1027,-639"/>
</g>
<!-- ProcessType -->
<g id="node10" class="node"><title>ProcessType</title>
<polyline style="fill:none;stroke:black;" points="1139,-674 1280,-674 "/>
<path style="fill:none;stroke:black;" d="M1280,-674C1286,-674 1292,-680 1292,-686"/>
<polyline style="fill:none;stroke:black;" points="1292,-686 1292,-763 "/>
<path style="fill:none;stroke:black;" d="M1292,-763C1292,-769 1286,-775 1280,-775"/>
<polyline style="fill:none;stroke:black;" points="1280,-775 1139,-775 "/>
<path style="fill:none;stroke:black;" d="M1139,-775C1133,-775 1127,-769 1127,-763"/>
<polyline style="fill:none;stroke:black;" points="1127,-763 1127,-686 "/>
<path style="fill:none;stroke:black;" d="M1127,-686C1127,-680 1133,-674 1139,-674"/>
<text text-anchor="middle" x="1209" y="-757.9" style="font-family:Times New Roman;font-size:14.00;">ProcessType</text>
<polyline style="fill:none;stroke:black;" points="1127,-750 1292,-750 "/>
<text text-anchor="start" x="1134.5" y="-733.4" style="font-family:Times New Roman;font-size:14.00;">id :integer</text>
<text text-anchor="start" x="1134.5" y="-716.4" style="font-family:Times New Roman;font-size:14.00;">name :string</text>
<text text-anchor="start" x="1134.5" y="-699.4" style="font-family:Times New Roman;font-size:14.00;">created_at :datetime</text>
<text text-anchor="start" x="1134.5" y="-682.4" style="font-family:Times New Roman;font-size:14.00;">updated_at :datetime</text>
</g>
<!-- ProcessType&#45;&gt;Project -->
<g id="edge18" class="edge"><title>ProcessType&#45;&gt;Project</title>
<path style="fill:none;stroke:#e7ef83;" d="M1172,-667C1166,-656 1158,-645 1150,-632"/>
<ellipse style="fill:none;stroke:#e7ef83;" cx="1174.02" cy="-670.527" rx="4.00002" ry="4.00002"/>
<polygon style="fill:#e7ef83;stroke:#e7ef83;" points="1150,-632 1147.6,-621.3 1147,-628 1144,-624 1144,-624 1144,-624 1147,-628 1140.4,-626.7 1150,-632 1150,-632"/>
</g>
<!-- TaskType -->
<g id="node11" class="node"><title>TaskType</title>
<polyline style="fill:none;stroke:black;" points="740,-392 881,-392 "/>
<path style="fill:none;stroke:black;" d="M881,-392C887,-392 893,-398 893,-404"/>
<polyline style="fill:none;stroke:black;" points="893,-404 893,-481 "/>
<path style="fill:none;stroke:black;" d="M893,-481C893,-487 887,-493 881,-493"/>
<polyline style="fill:none;stroke:black;" points="881,-493 740,-493 "/>
<path style="fill:none;stroke:black;" d="M740,-493C734,-493 728,-487 728,-481"/>
<polyline style="fill:none;stroke:black;" points="728,-481 728,-404 "/>
<path style="fill:none;stroke:black;" d="M728,-404C728,-398 734,-392 740,-392"/>
<text text-anchor="middle" x="810" y="-475.9" style="font-family:Times New Roman;font-size:14.00;">TaskType</text>
<polyline style="fill:none;stroke:black;" points="728,-468 893,-468 "/>
<text text-anchor="start" x="735.5" y="-451.4" style="font-family:Times New Roman;font-size:14.00;">id :integer</text>
<text text-anchor="start" x="735.5" y="-434.4" style="font-family:Times New Roman;font-size:14.00;">name :string</text>
<text text-anchor="start" x="735.5" y="-417.4" style="font-family:Times New Roman;font-size:14.00;">created_at :datetime</text>
<text text-anchor="start" x="735.5" y="-400.4" style="font-family:Times New Roman;font-size:14.00;">updated_at :datetime</text>
</g>
<!-- TaskType&#45;&gt;Appropriation -->
<g id="edge20" class="edge"><title>TaskType&#45;&gt;Appropriation</title>
<path style="fill:none;stroke:#90f82b;" d="M789,-384C774,-345 750,-294 719,-256 693,-224 660,-194 628,-170"/>
<ellipse style="fill:none;stroke:#90f82b;" cx="790.595" cy="-388.255" rx="4.00001" ry="4.00001"/>
<polygon style="fill:#90f82b;stroke:#90f82b;" points="628,-170 622.7,-160.4 624,-167 620,-164 620,-164 620,-164 624,-167 617.3,-167.6 628,-170 628,-170"/>
</g>
<!-- Project&#45;&gt;Appropriation -->
<g id="edge22" class="edge"><title>Project&#45;&gt;Appropriation</title>
<path style="fill:none;stroke:#a3e4d0;" d="M904,-258C903,-257 902,-257 901,-256 820,-191 709,-152 630,-131"/>
<ellipse style="fill:none;stroke:#a3e4d0;" cx="907.172" cy="-261.172" rx="4.00002" ry="4.00002"/>
<polygon style="fill:#a3e4d0;stroke:#a3e4d0;" points="629.578,-130.874 621.293,-123.69 624.789,-129.437 620,-128 620,-128 620,-128 624.789,-129.437 618.707,-132.31 629.578,-130.874 629.578,-130.874"/>
</g>
<!-- Priority -->
<g id="node14" class="node"><title>Priority</title>
<polyline style="fill:none;stroke:black;" points="1321,-674 1462,-674 "/>
<path style="fill:none;stroke:black;" d="M1462,-674C1468,-674 1474,-680 1474,-686"/>
<polyline style="fill:none;stroke:black;" points="1474,-686 1474,-763 "/>
<path style="fill:none;stroke:black;" d="M1474,-763C1474,-769 1468,-775 1462,-775"/>
<polyline style="fill:none;stroke:black;" points="1462,-775 1321,-775 "/>
<path style="fill:none;stroke:black;" d="M1321,-775C1315,-775 1309,-769 1309,-763"/>
<polyline style="fill:none;stroke:black;" points="1309,-763 1309,-686 "/>
<path style="fill:none;stroke:black;" d="M1309,-686C1309,-680 1315,-674 1321,-674"/>
<text text-anchor="middle" x="1391" y="-757.9" style="font-family:Times New Roman;font-size:14.00;">Priority</text>
<polyline style="fill:none;stroke:black;" points="1309,-750 1474,-750 "/>
<text text-anchor="start" x="1316.5" y="-733.4" style="font-family:Times New Roman;font-size:14.00;">id :integer</text>
<text text-anchor="start" x="1316.5" y="-716.4" style="font-family:Times New Roman;font-size:14.00;">name :string</text>
<text text-anchor="start" x="1316.5" y="-699.4" style="font-family:Times New Roman;font-size:14.00;">created_at :datetime</text>
<text text-anchor="start" x="1316.5" y="-682.4" style="font-family:Times New Roman;font-size:14.00;">updated_at :datetime</text>
</g>
<!-- Priority&#45;&gt;Project -->
<g id="edge24" class="edge"><title>Priority&#45;&gt;Project</title>
<path style="fill:none;stroke:#eafd5e;" d="M1318,-669C1271,-632 1207,-583 1152,-540"/>
<ellipse style="fill:none;stroke:#eafd5e;" cx="1321.75" cy="-671.675" rx="4.00002" ry="4.00002"/>
<polygon style="fill:#eafd5e;stroke:#eafd5e;" points="1152,-540 1146.7,-530.4 1148,-537 1144,-534 1144,-534 1144,-534 1148,-537 1141.3,-537.6 1152,-540 1152,-540"/>
</g>
<!-- State -->
<g id="node15" class="node"><title>State</title>
<polyline style="fill:none;stroke:black;" points="1503,-674 1644,-674 "/>
<path style="fill:none;stroke:black;" d="M1644,-674C1650,-674 1656,-680 1656,-686"/>
<polyline style="fill:none;stroke:black;" points="1656,-686 1656,-763 "/>
<path style="fill:none;stroke:black;" d="M1656,-763C1656,-769 1650,-775 1644,-775"/>
<polyline style="fill:none;stroke:black;" points="1644,-775 1503,-775 "/>
<path style="fill:none;stroke:black;" d="M1503,-775C1497,-775 1491,-769 1491,-763"/>
<polyline style="fill:none;stroke:black;" points="1491,-763 1491,-686 "/>
<path style="fill:none;stroke:black;" d="M1491,-686C1491,-680 1497,-674 1503,-674"/>
<text text-anchor="middle" x="1573" y="-757.9" style="font-family:Times New Roman;font-size:14.00;">State</text>
<polyline style="fill:none;stroke:black;" points="1491,-750 1656,-750 "/>
<text text-anchor="start" x="1498.5" y="-733.4" style="font-family:Times New Roman;font-size:14.00;">id :integer</text>
<text text-anchor="start" x="1498.5" y="-716.4" style="font-family:Times New Roman;font-size:14.00;">name :string</text>
<text text-anchor="start" x="1498.5" y="-699.4" style="font-family:Times New Roman;font-size:14.00;">created_at :datetime</text>
<text text-anchor="start" x="1498.5" y="-682.4" style="font-family:Times New Roman;font-size:14.00;">updated_at :datetime</text>
</g>
<!-- State&#45;&gt;Project -->
<g id="edge26" class="edge"><title>State&#45;&gt;Project</title>
<path style="fill:none;stroke:#76910f;" d="M1489,-670C1486,-669 1484,-668 1482,-666 1374,-604 1246,-542 1153,-500"/>
<ellipse style="fill:none;stroke:#76910f;" cx="1492.53" cy="-672.015" rx="4.00002" ry="4.00002"/>
<polygon style="fill:#76910f;stroke:#76910f;" points="1153.14,-500.061 1145.83,-491.888 1148.57,-498.031 1144,-496 1144,-496 1144,-496 1148.57,-498.031 1142.17,-500.112 1153.14,-500.061 1153.14,-500.061"/>
</g>
</g>
</svg>
