<?xml version="1.0" encoding="UTF-8" standalone="no"?>
<!DOCTYPE svg PUBLIC "-//W3C//DTD SVG 1.0//EN"
 "http://www.w3.org/TR/2001/REC-SVG-20010904/DTD/svg10.dtd" [
 <!ATTLIST svg xmlns:xlink CDATA #FIXED "http://www.w3.org/1999/xlink">
]>
<!-- Generated by Graphviz version 2.20.2 (Tue Mar &#160;2 21:46:26 UTC 2010)
     For user: (81665687568) Leandro Nunes dos Santos -->
<!-- Title: models_diagram Pages: 1 -->
<svg width="1114pt" height="246pt"
 viewBox="0.00 0.00 1114.00 246.00" xmlns="http://www.w3.org/2000/svg" xmlns:xlink="http://www.w3.org/1999/xlink">
<g id="graph0" class="graph" transform="scale(1 1) rotate(0) translate(4 242)">
<title>models_diagram</title>
<polygon style="fill:white;stroke:white;" points="-4,4 -4,-242 1110,-242 1110,4 -4,4"/>
<!-- _diagram_info -->
<g id="node1" class="node"><title>_diagram_info</title>
<text text-anchor="start" x="7.5" y="-221.8" style="font-family:Times New Roman;font-size:13.00;">Models diagram</text>
<text text-anchor="start" x="7.5" y="-204.8" style="font-family:Times New Roman;font-size:13.00;">Date: Jul 26 2013 &#45; 13:52</text>
<text text-anchor="start" x="7.5" y="-187.8" style="font-family:Times New Roman;font-size:13.00;">Migration version: 20130726010059</text>
<text text-anchor="start" x="7.5" y="-170.8" style="font-family:Times New Roman;font-size:13.00;">Generated by RailRoady 1.1.0</text>
<text text-anchor="start" x="7.5" y="-153.8" style="font-family:Times New Roman;font-size:13.00;">http://railroady.prestonlee.com</text>
</g>
<!-- Worker -->
<g id="node2" class="node"><title>Worker</title>
<ellipse style="fill:none;stroke:black;" cx="134" cy="-90" rx="45.8622" ry="18"/>
<text text-anchor="middle" x="134" y="-85.9" style="font-family:Times New Roman;font-size:14.00;">Worker</text>
</g>
<!-- Appropriation -->
<g id="node13" class="node"><title>Appropriation</title>
<ellipse style="fill:none;stroke:black;" cx="423" cy="-18" rx="75.9375" ry="18"/>
<text text-anchor="middle" x="423" y="-13.9" style="font-family:Times New Roman;font-size:14.00;">Appropriation</text>
</g>
<!-- Worker&#45;&gt;Appropriation -->
<g id="edge2" class="edge"><title>Worker&#45;&gt;Appropriation</title>
<path style="fill:none;stroke:#00d24f;" d="M176,-76C180,-75 185,-73 189,-72 244,-56 308,-42 355,-32"/>
<ellipse style="fill:none;stroke:#00d24f;" cx="171.881" cy="-77.0298" rx="4.00001" ry="4.00001"/>
<polygon style="fill:#00d24f;stroke:#00d24f;" points="355.194,-31.9612 365.883,-34.4126 360.097,-30.9806 365,-30 365,-30 365,-30 360.097,-30.9806 364.117,-25.5874 355.194,-31.9612 355.194,-31.9612"/>
</g>
<!-- Activity -->
<g id="node3" class="node"><title>Activity</title>
<ellipse style="fill:none;stroke:black;" cx="246" cy="-90" rx="47.9469" ry="18"/>
<text text-anchor="middle" x="246" y="-85.9" style="font-family:Times New Roman;font-size:14.00;">Activity</text>
</g>
<!-- Activity&#45;&gt;Appropriation -->
<g id="edge4" class="edge"><title>Activity&#45;&gt;Appropriation</title>
<path style="fill:none;stroke:#8c99bc;" d="M287,-74C313,-63 348,-49 375,-38"/>
<ellipse style="fill:none;stroke:#8c99bc;" cx="282.745" cy="-75.5955" rx="4.00001" ry="4.00001"/>
<polygon style="fill:#8c99bc;stroke:#8c99bc;" points="375.715,-37.714 386.671,-38.1781 380.358,-35.857 385,-34 385,-34 385,-34 380.358,-35.857 383.329,-29.8219 375.715,-37.714 375.715,-37.714"/>
</g>
<!-- TimeType -->
<g id="node4" class="node"><title>TimeType</title>
<ellipse style="fill:none;stroke:black;" cx="368" cy="-90" rx="55.7874" ry="18"/>
<text text-anchor="middle" x="368" y="-85.9" style="font-family:Times New Roman;font-size:14.00;">TimeType</text>
</g>
<!-- TimeType&#45;&gt;Appropriation -->
<g id="edge6" class="edge"><title>TimeType&#45;&gt;Appropriation</title>
<path style="fill:none;stroke:#e805c0;" d="M387,-66C392,-59 398,-51 403,-44"/>
<ellipse style="fill:none;stroke:#e805c0;" cx="384.561" cy="-68.9271" rx="4.00002" ry="4.00002"/>
<polygon style="fill:#e805c0;stroke:#e805c0;" points="403,-44 412.6,-38.7 406,-40 409,-36 409,-36 409,-36 406,-40 405.4,-33.3 403,-44 403,-44"/>
</g>
<!-- Situation -->
<g id="node5" class="node"><title>Situation</title>
<ellipse style="fill:none;stroke:black;" cx="321" cy="-191" rx="54.8957" ry="18"/>
<text text-anchor="middle" x="321" y="-186.9" style="font-family:Times New Roman;font-size:14.00;">Situation</text>
</g>
<!-- Project -->
<g id="node12" class="node"><title>Project</title>
<ellipse style="fill:none;stroke:black;" cx="704" cy="-90" rx="43.9728" ry="18"/>
<text text-anchor="middle" x="704" y="-85.9" style="font-family:Times New Roman;font-size:14.00;">Project</text>
</g>
<!-- Situation&#45;&gt;Project -->
<g id="edge8" class="edge"><title>Situation&#45;&gt;Project</title>
<path style="fill:none;stroke:#5c7857;" d="M345,-169C357,-159 371,-150 385,-144 495,-99 534,-135 651,-108 655,-107 658,-106 661,-105"/>
<ellipse style="fill:none;stroke:#5c7857;" cx="342.073" cy="-171.439" rx="4.00002" ry="4.00002"/>
<polygon style="fill:#5c7857;stroke:#5c7857;" points="661.422,-104.874 672.293,-106.31 666.211,-103.437 671,-102 671,-102 671,-102 666.211,-103.437 669.707,-97.6898 661.422,-104.874 661.422,-104.874"/>
</g>
<!-- Service -->
<g id="node6" class="node"><title>Service</title>
<ellipse style="fill:none;stroke:black;" cx="440" cy="-191" rx="45.8622" ry="18"/>
<text text-anchor="middle" x="440" y="-186.9" style="font-family:Times New Roman;font-size:14.00;">Service</text>
</g>
<!-- Service&#45;&gt;Project -->
<g id="edge10" class="edge"><title>Service&#45;&gt;Project</title>
<path style="fill:none;stroke:#75f3ab;" d="M462,-168C471,-159 483,-150 495,-144 558,-111 582,-127 651,-108 654,-107 657,-106 660,-105"/>
<ellipse style="fill:none;stroke:#75f3ab;" cx="458.828" cy="-171.172" rx="4.00002" ry="4.00002"/>
<polygon style="fill:#75f3ab;stroke:#75f3ab;" points="660.422,-104.874 671.293,-106.31 665.211,-103.437 670,-102 670,-102 670,-102 665.211,-103.437 668.707,-97.6898 660.422,-104.874 660.422,-104.874"/>
</g>
<!-- Localization -->
<g id="node7" class="node"><title>Localization</title>
<ellipse style="fill:none;stroke:black;" cx="573" cy="-191" rx="68.7933" ry="18"/>
<text text-anchor="middle" x="573" y="-186.9" style="font-family:Times New Roman;font-size:14.00;">Localization</text>
</g>
<!-- Localization&#45;&gt;Project -->
<g id="edge12" class="edge"><title>Localization&#45;&gt;Project</title>
<path style="fill:none;stroke:#2f6b34;" d="M601,-169C623,-152 653,-129 675,-112"/>
<ellipse style="fill:none;stroke:#2f6b34;" cx="598.073" cy="-171.439" rx="4.00002" ry="4.00002"/>
<polygon style="fill:#2f6b34;stroke:#2f6b34;" points="675,-112 685.7,-109.6 679,-109 683,-106 683,-106 683,-106 679,-109 680.3,-102.4 675,-112 675,-112"/>
</g>
<!-- Input -->
<g id="node8" class="node"><title>Input</title>
<ellipse style="fill:none;stroke:black;" cx="479" cy="-90" rx="36.8288" ry="18"/>
<text text-anchor="middle" x="479" y="-85.9" style="font-family:Times New Roman;font-size:14.00;">Input</text>
</g>
<!-- Input&#45;&gt;Appropriation -->
<g id="edge14" class="edge"><title>Input&#45;&gt;Appropriation</title>
<path style="fill:none;stroke:#6f1265;" d="M461,-67C455,-60 449,-52 443,-44"/>
<ellipse style="fill:none;stroke:#6f1265;" cx="463.439" cy="-69.9271" rx="4.00002" ry="4.00002"/>
<polygon style="fill:#6f1265;stroke:#6f1265;" points="443,-44 440.6,-33.3 440,-40 437,-36 437,-36 437,-36 440,-40 433.4,-38.7 443,-44 443,-44"/>
</g>
<!-- SsType -->
<g id="node9" class="node"><title>SsType</title>
<ellipse style="fill:none;stroke:black;" cx="704" cy="-191" rx="43.7776" ry="18"/>
<text text-anchor="middle" x="704" y="-186.9" style="font-family:Times New Roman;font-size:14.00;">SsType</text>
</g>
<!-- SsType&#45;&gt;Project -->
<g id="edge16" class="edge"><title>SsType&#45;&gt;Project</title>
<path style="fill:none;stroke:#b4d71c;" d="M704,-165C704,-151 704,-133 704,-118"/>
<ellipse style="fill:none;stroke:#b4d71c;" cx="704" cy="-169" rx="4" ry="4"/>
<polygon style="fill:#b4d71c;stroke:#b4d71c;" points="704,-118 708.5,-108 704,-113 704,-108 704,-108 704,-108 704,-113 699.5,-108 704,-118 704,-118"/>
</g>
<!-- ProcessType -->
<g id="node10" class="node"><title>ProcessType</title>
<ellipse style="fill:none;stroke:black;" cx="835" cy="-191" rx="68.7933" ry="18"/>
<text text-anchor="middle" x="835" y="-186.9" style="font-family:Times New Roman;font-size:14.00;">ProcessType</text>
</g>
<!-- ProcessType&#45;&gt;Project -->
<g id="edge18" class="edge"><title>ProcessType&#45;&gt;Project</title>
<path style="fill:none;stroke:#b21ba4;" d="M807,-169C785,-152 755,-129 733,-112"/>
<ellipse style="fill:none;stroke:#b21ba4;" cx="809.927" cy="-171.439" rx="4.00002" ry="4.00002"/>
<polygon style="fill:#b21ba4;stroke:#b21ba4;" points="733,-112 727.7,-102.4 729,-109 725,-106 725,-106 725,-106 729,-109 722.3,-109.6 733,-112 733,-112"/>
</g>
<!-- TaskType -->
<g id="node11" class="node"><title>TaskType</title>
<ellipse style="fill:none;stroke:black;" cx="588" cy="-90" rx="54.2008" ry="18"/>
<text text-anchor="middle" x="588" y="-85.9" style="font-family:Times New Roman;font-size:14.00;">TaskType</text>
</g>
<!-- TaskType&#45;&gt;Appropriation -->
<g id="edge20" class="edge"><title>TaskType&#45;&gt;Appropriation</title>
<path style="fill:none;stroke:#b12b7f;" d="M548,-73C523,-62 494,-49 468,-38"/>
<ellipse style="fill:none;stroke:#b12b7f;" cx="551.323" cy="-74.4243" rx="4.00002" ry="4.00002"/>
<polygon style="fill:#b12b7f;stroke:#b12b7f;" points="468.138,-38.0614 460.828,-29.8878 463.569,-36.0307 459,-34 459,-34 459,-34 463.569,-36.0307 457.172,-38.1122 468.138,-38.0614 468.138,-38.0614"/>
</g>
<!-- Project&#45;&gt;Appropriation -->
<g id="edge22" class="edge"><title>Project&#45;&gt;Appropriation</title>
<path style="fill:none;stroke:#4b3afc;" d="M663,-76C659,-75 655,-73 651,-72 597,-56 535,-42 490,-32"/>
<ellipse style="fill:none;stroke:#4b3afc;" cx="667.119" cy="-77.0298" rx="4.00001" ry="4.00001"/>
<polygon style="fill:#4b3afc;stroke:#4b3afc;" points="489.806,-31.9612 480.883,-25.5874 484.903,-30.9806 480,-30 480,-30 480,-30 484.903,-30.9806 479.117,-34.4126 489.806,-31.9612 489.806,-31.9612"/>
</g>
<!-- Priority -->
<g id="node14" class="node"><title>Priority</title>
<ellipse style="fill:none;stroke:black;" cx="968" cy="-191" rx="46.0565" ry="18"/>
<text text-anchor="middle" x="968" y="-186.9" style="font-family:Times New Roman;font-size:14.00;">Priority</text>
</g>
<!-- Priority&#45;&gt;Project -->
<g id="edge24" class="edge"><title>Priority&#45;&gt;Project</title>
<path style="fill:none;stroke:#55f081;" d="M946,-168C937,-159 924,-150 913,-144 863,-118 800,-104 757,-97"/>
<ellipse style="fill:none;stroke:#55f081;" cx="949.172" cy="-171.172" rx="4.00002" ry="4.00002"/>
<polygon style="fill:#55f081;stroke:#55f081;" points="756.806,-96.9612 747.883,-90.5874 751.903,-95.9806 747,-95 747,-95 747,-95 751.903,-95.9806 746.117,-99.4126 756.806,-96.9612 756.806,-96.9612"/>
</g>
<!-- State -->
<g id="node15" class="node"><title>State</title>
<ellipse style="fill:none;stroke:black;" cx="1069" cy="-191" rx="37.0233" ry="18"/>
<text text-anchor="middle" x="1069" y="-186.9" style="font-family:Times New Roman;font-size:14.00;">State</text>
</g>
<!-- State&#45;&gt;Project -->
<g id="edge26" class="edge"><title>State&#45;&gt;Project</title>
<path style="fill:none;stroke:#dbf579;" d="M1052,-168C1043,-159 1034,-150 1023,-144 978,-120 836,-103 757,-95"/>
<ellipse style="fill:none;stroke:#dbf579;" cx="1054.44" cy="-170.927" rx="4.00002" ry="4.00002"/>
<polygon style="fill:#dbf579;stroke:#dbf579;" points="756.95,-94.9951 747.448,-89.5223 751.975,-94.4976 747,-94 747,-94 747,-94 751.975,-94.4976 746.552,-98.4777 756.95,-94.9951 756.95,-94.9951"/>
</g>
</g>
</svg>
